<svg xmlns="http://www.w3.org/2000/svg" width="300" height="412"><linearGradient id="a" gradientUnits="userSpaceOnUse" x1="293.8" y1="403.924" x2="6.2" y2="8.078"><stop offset="0" stop-color="#2f536e"/><stop offset="1" stop-color="#85c7ee"/></linearGradient><path fill="url(#a)" d="M19.406 2.471h261.188c9.311 0 16.928 7.587 16.928 16.86v373.338c0 9.276-7.617 16.862-16.928 16.862H19.406c-9.311 0-16.928-7.586-16.928-16.862V19.331c.001-9.273 7.617-16.86 16.928-16.86z"/><path fill="#FFF" d="M280.594 412H19.406C8.705 412-.001 403.328-.001 392.669V19.331C-.001 8.674 8.705.002 19.406.002h261.188C291.293.002 300 8.674 300 19.331v373.338c0 10.659-8.707 19.331-19.406 19.331zM19.406 4.94c-7.967 0-14.449 6.456-14.449 14.391v373.338c0 7.937 6.482 14.394 14.449 14.394h261.188c7.967 0 14.449-6.457 14.449-14.394V19.331c0-7.935-6.482-14.391-14.449-14.391H19.406z"/></svg>