<svg xmlns="http://www.w3.org/2000/svg" width="300" height="412"><path fill="#FFF" d="M19.407 2.473h261.185c9.312 0 16.928 7.586 16.928 16.859v373.337c0 9.275-7.615 16.862-16.928 16.862H19.407c-9.312 0-16.928-7.587-16.928-16.862V19.332c0-9.273 7.617-16.859 16.928-16.859z"/><path fill="#C6C6C6" d="M280.592 412H19.407C8.706 412 0 403.328 0 392.669V19.332C0 8.675 8.706.004 19.407.004h261.185c10.701 0 19.406 8.671 19.406 19.328v373.337c0 10.659-8.705 19.331-19.406 19.331zM19.407 4.942c-7.968 0-14.45 6.456-14.45 14.39v373.337c0 7.937 6.482 14.394 14.45 14.394h261.185c7.969 0 14.449-6.457 14.449-14.394V19.332c0-7.935-6.48-14.39-14.449-14.39H19.407z"/><path d="M85.041 80.361v13.183H35.102c.555-4.98 2.163-9.701 4.88-14.165 2.7-4.464 8.046-10.377 16.005-17.75 6.438-5.947 10.366-9.997 11.818-12.116 1.956-2.931 2.941-5.826 2.941-8.688 0-3.154-.847-5.582-2.56-7.291-1.713-1.705-4.066-2.549-7.078-2.549-2.977 0-5.329.895-7.094 2.671-1.747 1.792-2.769 4.757-3.045 8.894l-14.19-1.415c.849-7.807 3.497-13.407 7.96-16.819 4.465-3.396 10.037-5.103 16.732-5.103 7.336 0 13.1 1.983 17.287 5.912 4.189 3.946 6.281 8.841 6.281 14.701a25.6 25.6 0 0 1-1.799 9.51c-1.195 3.019-3.097 6.171-5.692 9.464-1.73 2.188-4.846 5.342-9.328 9.445-4.499 4.103-7.354 6.841-8.547 8.186-1.195 1.343-2.181 2.654-2.925 3.929h28.293v.001z"/><path fill-rule="evenodd" clip-rule="evenodd" d="M189.148 377.881l-75.454-.797c27.26-13.931 34.531-29.837 33.236-55.775-.183-3.688-.405-6.943-.705-7.446-1.231-2.066-14.085 11.117-15.412 12.909-10.033 13.552-55.068 24.462-64.387-11.255-6.707-25.701 17.837-41.127 41.552-37.742 4.985.713 14.002 5.341 21.016 11.604 6.586 5.881 9.841 12.621 15.832 12.895 9.14.421-5.808-21.534-11.268-27.333-23.363-24.817-17.647-66.633 19.066-66.633 35.557 0 40.043 36.252 17.258 65.198-4.582 5.821-18.422 22.923-11.338 28.236 1.703 1.276 6.859-1.498 12.016-7.074 9.186-9.928 22.713-18.549 36.74-18.549 15.283 0 29.088 10.062 31.211 25.694 3.201 23.556-10.34 38.048-33.164 39.414-23.223 1.388-40.027-27.368-46.207-27.368-1.148 0-1.619 3.255-1.775 6.854-1.303 30.292 6.139 41.696 31.783 57.168z"/><g><path fill-rule="evenodd" clip-rule="evenodd" d="M78.741 181.687l-35.734-.358c12.909-6.271 16.353-13.429 15.74-25.104-.088-1.659-.193-3.124-.334-3.35-.583-.932-6.671 5.002-7.298 5.808-4.753 6.102-26.081 11.01-30.495-5.065-3.176-11.565 8.448-18.51 19.68-16.986 2.36.322 6.63 2.405 9.953 5.223 3.118 2.646 4.661 5.679 7.497 5.802 4.329.19-2.75-9.691-5.335-12.301-11.064-11.17-8.356-29.989 9.029-29.989 16.839 0 18.963 16.314 8.174 29.342-2.17 2.623-8.726 10.316-5.371 12.71.806.574 3.249-.674 5.692-3.185 4.349-4.469 10.755-8.349 17.399-8.349 7.238 0 13.774 4.529 14.78 11.565 1.517 10.602-4.896 17.124-15.706 17.737-10.998.626-18.957-12.316-21.883-12.316-.543 0-.767 1.465-.839 3.083-.618 13.635 2.907 18.769 15.051 25.733z"/></g></svg>