<svg xmlns="http://www.w3.org/2000/svg" width="300" height="412"><path fill="#FFF" d="M19.407 2.471h261.185c9.312 0 16.928 7.587 16.928 16.86v373.338c0 9.276-7.615 16.862-16.928 16.862H19.407c-9.312 0-16.928-7.586-16.928-16.862V19.331c0-9.273 7.617-16.86 16.928-16.86z"/><path fill="#C6C6C6" d="M280.592 412H19.407C8.706 412 0 403.328 0 392.669V19.331C0 8.674 8.706.002 19.407.002h261.185c10.701 0 19.406 8.672 19.406 19.329v373.338c0 10.659-8.705 19.331-19.406 19.331zM19.407 4.94c-7.968 0-14.45 6.456-14.45 14.391v373.338c0 7.937 6.482 14.394 14.45 14.394h261.185c7.969 0 14.449-6.457 14.449-14.394V19.331c0-7.935-6.48-14.391-14.449-14.391H19.407z"/><path d="M35.36 74.237l13.934-1.651c.455 3.49 1.646 6.153 3.607 7.993 1.942 1.855 4.307 2.784 7.071 2.784 2.976 0 5.479-1.118 7.51-3.334 2.031-2.218 3.046-5.191 3.046-8.957 0-3.558-.962-6.375-2.924-8.457-1.942-2.095-4.323-3.127-7.124-3.127-1.838 0-4.044.345-6.618 1.049l1.595-11.515c3.904.085 6.879-.74 8.927-2.493 2.048-1.771 3.082-4.108 3.082-7.031 0-2.491-.753-4.47-2.258-5.945-1.507-1.479-3.52-2.218-6.004-2.218-2.469 0-4.57.841-6.302 2.524-1.751 1.669-2.819 4.126-3.186 7.341L36.429 39c.927-4.467 2.311-8.045 4.185-10.708 1.855-2.665 4.463-4.763 7.789-6.291 3.343-1.53 7.073-2.303 11.203-2.303 7.09 0 12.761 2.217 17.033 6.651 3.518 3.627 5.287 7.716 5.287 12.289 0 6.481-3.606 11.654-10.817 15.505 4.306.91 7.736 2.938 10.327 6.102 2.574 3.145 3.87 6.961 3.87 11.428 0 6.482-2.417 12-7.23 16.571-4.814 4.554-10.819 6.84-17.996 6.84-6.809 0-12.446-1.925-16.928-5.759-4.482-3.847-7.073-8.867-7.792-15.088z"/><path fill-rule="evenodd" clip-rule="evenodd" d="M190.32 378.428l-75.452-.795c27.259-13.933 34.53-29.842 33.234-55.779-.183-3.687-.405-6.941-.705-7.442-1.231-2.068-14.083 11.116-15.411 12.907-10.033 13.55-55.068 24.463-64.388-11.256-6.708-25.7 17.838-41.128 41.551-37.741 4.987.712 14.004 5.342 21.018 11.602 6.585 5.882 9.839 12.622 15.831 12.898 9.14.417-5.807-21.537-11.267-27.335-23.363-24.819-17.647-66.632 19.064-66.632 35.557 0 40.043 36.251 17.26 65.196-4.584 5.822-18.424 22.924-11.338 28.238 1.701 1.277 6.857-1.499 12.016-7.077 9.186-9.928 22.713-18.546 36.74-18.546 15.281 0 29.084 10.061 31.209 25.692 3.203 23.556-10.34 38.049-33.164 39.414-23.223 1.387-40.025-27.367-46.207-27.367-1.148 0-1.617 3.256-1.773 6.852-1.302 30.293 6.14 41.697 31.782 57.171z"/><g><path fill-rule="evenodd" clip-rule="evenodd" d="M78.741 181.443l-35.734-.359c12.909-6.27 16.353-13.428 15.74-25.103-.088-1.66-.193-3.125-.334-3.352-.583-.93-6.671 5.003-7.298 5.811-4.753 6.099-26.081 11.011-30.495-5.067-3.176-11.565 8.448-18.51 19.68-16.987 2.36.322 6.63 2.406 9.953 5.224 3.118 2.646 4.661 5.681 7.497 5.805 4.329.186-2.75-9.693-5.335-12.305-11.064-11.17-8.356-29.987 9.029-29.987 16.839 0 18.963 16.313 8.174 29.342-2.17 2.622-8.726 10.318-5.371 12.71.806.575 3.249-.675 5.692-3.186 4.349-4.469 10.755-8.348 17.399-8.348 7.238 0 13.774 4.529 14.78 11.564 1.517 10.603-4.896 17.126-15.706 17.74-10.998.623-18.957-12.319-21.883-12.319-.543 0-.767 1.465-.839 3.086-.618 13.635 2.907 18.767 15.051 25.731z"/></g></svg>