<svg xmlns="http://www.w3.org/2000/svg" width="300" height="412"><path fill="#FFF" d="M19.409 2.473h261.183c9.312 0 16.928 7.587 16.928 16.86v373.336c0 9.276-7.615 16.862-16.928 16.862H19.409c-9.313 0-16.93-7.586-16.93-16.862V19.333c0-9.273 7.616-16.86 16.93-16.86z"/><path fill="#C6C6C6" d="M280.592 412H19.409C8.707 412 0 403.328 0 392.669V19.333C0 8.675 8.707.004 19.409.004h261.183c10.701 0 19.406 8.671 19.406 19.329v373.336c0 10.659-8.705 19.331-19.406 19.331zM19.409 4.942c-7.968 0-14.451 6.456-14.451 14.391v373.336c0 7.937 6.483 14.394 14.451 14.394h261.183c7.969 0 14.449-6.457 14.449-14.394V19.333c0-7.935-6.48-14.391-14.449-14.391H19.409z"/><path fill="#E30613" d="M34.594 74.238l13.936-1.65c.454 3.49 1.645 6.152 3.606 7.993 1.942 1.855 4.306 2.783 7.074 2.783 2.974 0 5.477-1.118 7.509-3.334 2.03-2.217 3.044-5.191 3.044-8.956 0-3.558-.963-6.375-2.922-8.457-1.941-2.095-4.323-3.128-7.124-3.128-1.84 0-4.045.346-6.619 1.05l1.596-11.515c3.903.085 6.876-.74 8.927-2.494 2.047-1.77 3.082-4.107 3.082-7.03 0-2.492-.754-4.47-2.26-5.946-1.505-1.479-3.518-2.218-6.004-2.218-2.468 0-4.569.842-6.302 2.525-1.751 1.668-2.817 4.126-3.186 7.341l-13.287-2.201c.927-4.468 2.311-8.045 4.184-10.708 1.854-2.665 4.465-4.763 7.79-6.291C50.98 20.473 54.71 19.7 58.84 19.7c7.09 0 12.759 2.218 17.031 6.652 3.519 3.626 5.287 7.716 5.287 12.289 0 6.481-3.606 11.653-10.817 15.504 4.306.91 7.736 2.939 10.327 6.102 2.574 3.145 3.87 6.961 3.87 11.429 0 6.481-2.415 11.999-7.229 16.57-4.813 4.555-10.821 6.841-17.996 6.841-6.809 0-12.448-1.925-16.93-5.759-4.478-3.848-7.069-8.869-7.789-15.09z"/><path fill-rule="evenodd" clip-rule="evenodd" fill="#E30613" d="M152.301 372.475l-28.708-33.732c-19.589-23.021-65.147-63.565-58.207-99.546 6.729-34.905 66.738-39.785 79.128-13.163 1.882 4.046 2.492 7.252 4.054 8.846.811.879 1.853 1.317 3.07 1.317 1.678 0 2.953-.438 3.764-1.317 1.682-1.706 1.891-5.412 4.402-8.846 30.51-41.679 100.682-.484 73.533 48.008-5.414 9.67-12.973 17.784-26.898 34.398-13.936 16.622-22.115 27.252-25.605 31.258l-28.533 32.777z"/><g><path fill-rule="evenodd" clip-rule="evenodd" fill="#E30613" d="M61.882 176.001l-12.87-14.614c-8.782-9.974-29.207-27.535-26.095-43.123 3.017-15.12 29.918-17.233 35.476-5.701.841 1.752 1.116 3.141 1.816 3.832.363.381.831.571 1.375.571.754 0 1.324-.189 1.69-.571.751-.739.847-2.346 1.973-3.832 13.674-18.056 45.136-.21 32.966 20.795-2.43 4.19-5.817 7.706-12.06 14.902-6.248 7.2-9.916 11.805-11.481 13.541l-12.79 14.2z"/></g></svg>