<svg xmlns="http://www.w3.org/2000/svg" width="300" height="412"><path fill="#FFF" d="M19.409 2.473h261.183c9.312 0 16.928 7.586 16.928 16.859v373.337c0 9.275-7.615 16.862-16.928 16.862H19.409c-9.313 0-16.93-7.587-16.93-16.862V19.332c0-9.273 7.616-16.859 16.93-16.859z"/><path fill="#C6C6C6" d="M280.592 412H19.409C8.707 412 0 403.328 0 392.669V19.332C0 8.675 8.707.004 19.409.004h261.183c10.701 0 19.406 8.671 19.406 19.328v373.337c0 10.659-8.705 19.331-19.406 19.331zM19.409 4.942c-7.968 0-14.451 6.456-14.451 14.39v373.337c0 7.937 6.483 14.394 14.451 14.394h261.183c7.969 0 14.449-6.457 14.449-14.394V19.332c0-7.935-6.48-14.39-14.449-14.39H19.409z"/><path fill="#E30613" d="M62.807 91.231V76.457H31.878v-12.33l32.793-46.654h12.156v46.601h9.378v12.383h-9.378v14.774h-14.02zm0-27.157V38.969L45.443 64.074h17.364z"/><path fill-rule="evenodd" clip-rule="evenodd" fill="#E30613" d="M151.188 369.148l-28.708-33.732c-19.588-23.021-65.147-63.565-58.208-99.547 6.73-34.905 66.738-39.784 79.129-13.162 1.882 4.046 2.492 7.251 4.054 8.846.811.878 1.854 1.317 3.07 1.317 1.681 0 2.955-.439 3.765-1.317 1.682-1.705 1.891-5.412 4.402-8.846 30.508-41.679 100.682-.483 73.531 48.008-5.414 9.67-12.973 17.784-26.898 34.398-13.934 16.621-22.117 27.251-25.605 31.258l-28.532 32.777z"/><g><path fill-rule="evenodd" clip-rule="evenodd" fill="#E30613" d="M63.524 172.707l-13.026-14.791c-8.887-10.094-29.561-27.869-26.412-43.645 3.056-15.305 30.284-17.445 35.906-5.773.853 1.776 1.128 3.181 1.84 3.879.366.385.838.578 1.391.578.763 0 1.341-.193 1.71-.578.762-.748.856-2.375 1.996-3.879 13.845-18.273 45.686-.212 33.365 21.05-2.455 4.24-5.885 7.797-12.206 15.082-6.322 7.289-10.033 11.95-11.618 13.706l-12.946 14.371z"/></g></svg>