<svg xmlns="http://www.w3.org/2000/svg" width="300" height="412"><path fill="#FFF" d="M19.409 2.473h261.185c9.311 0 16.928 7.587 16.928 16.861v373.337c0 9.274-7.617 16.86-16.928 16.86H19.409c-9.311 0-16.93-7.586-16.93-16.86V19.334c0-9.274 7.619-16.861 16.93-16.861z"/><path fill="#C6C6C6" d="M280.594 412H19.409C8.707 412 0 403.329 0 392.671V19.334C0 8.676 8.707.004 19.409.004h261.185C291.295.004 300 8.676 300 19.334v373.337c0 10.658-8.705 19.329-19.406 19.329zM19.409 4.942c-7.968 0-14.451 6.457-14.451 14.392v373.337c0 7.936 6.483 14.392 14.451 14.392h261.185c7.967 0 14.449-6.456 14.449-14.392V19.334c0-7.936-6.482-14.392-14.449-14.392H19.409z"/><path fill="#E30613" d="M33.947 76.454l13.857-1.455c.388 3.203 1.574 5.747 3.515 7.616 1.944 1.887 4.192 2.823 6.727 2.823 2.909 0 5.375-1.213 7.385-3.619 2.013-2.422 3.025-6.076 3.025-10.941 0-4.551-.996-7.979-3.006-10.264-1.996-2.285-4.597-3.427-7.792-3.427-3.988 0-7.571 1.817-10.746 5.434l-11.292-1.68 7.132-38.687h36.791v13.327H53.298l-2.18 12.638c3.11-1.594 6.271-2.389 9.514-2.389 6.169 0 11.407 2.301 15.683 6.889 4.294 4.604 6.441 10.577 6.441 17.917 0 6.109-1.724 11.579-5.188 16.375-4.731 6.56-11.274 9.832-19.657 9.832-6.707 0-12.167-1.834-16.391-5.522-4.227-3.686-6.761-8.637-7.573-14.867z"/><path fill-rule="evenodd" clip-rule="evenodd" fill="#E30613" d="M150.011 208.22c23.061 29.565 51.256 56.674 82.334 82.397-30.229 26.658-60.197 53.396-82.334 82.638-30.709-36.595-59.262-60.453-84.036-82.638 24.335-21.347 53.256-48.001 84.036-82.397z"/><g><path fill-rule="evenodd" clip-rule="evenodd" fill="#E30613" d="M61.687 104.047c10.015 12.841 22.261 24.614 35.758 35.787-13.128 11.578-26.143 23.191-35.758 35.891-13.338-15.894-25.738-26.254-36.496-35.891 10.568-9.273 23.127-20.848 36.496-35.787z"/></g></svg>