<svg xmlns="http://www.w3.org/2000/svg" width="300" height="412"><path fill="#FFF" d="M19.409 2.473h261.183c9.312 0 16.928 7.587 16.928 16.861v373.337c0 9.274-7.615 16.86-16.928 16.86H19.409c-9.313 0-16.93-7.586-16.93-16.86V19.334c0-9.274 7.616-16.861 16.93-16.861z"/><path fill="#C6C6C6" d="M280.592 412H19.409C8.707 412 0 403.329 0 392.671V19.334C0 8.676 8.707.004 19.409.004h261.183c10.701 0 19.406 8.672 19.406 19.33v373.337c0 10.658-8.705 19.329-19.406 19.329zM19.409 4.942c-7.968 0-14.451 6.457-14.451 14.392v373.337c0 7.936 6.483 14.392 14.451 14.392h261.183c7.969 0 14.449-6.456 14.449-14.392V19.334c0-7.936-6.48-14.392-14.449-14.392H19.409z"/><path fill="#E30613" d="M35.539 76.454l13.859-1.455c.388 3.203 1.571 5.747 3.516 7.616 1.941 1.887 4.188 2.823 6.724 2.823 2.909 0 5.375-1.213 7.387-3.619 2.01-2.422 3.025-6.076 3.025-10.941 0-4.551-.998-7.979-3.007-10.264-1.996-2.285-4.599-3.427-7.793-3.427-3.988 0-7.569 1.817-10.747 5.434l-11.292-1.68 7.133-38.687h36.793v13.327H54.889l-2.18 12.638c3.109-1.594 6.271-2.389 9.517-2.389 6.168 0 11.407 2.301 15.682 6.889 4.292 4.604 6.438 10.577 6.438 17.917 0 6.109-1.724 11.579-5.187 16.375-4.732 6.56-11.272 9.832-19.655 9.832-6.71 0-12.167-1.834-16.393-5.522-4.224-3.686-6.762-8.637-7.572-14.867z"/><path fill-rule="evenodd" clip-rule="evenodd" fill="#E30613" d="M151.188 371.837l-28.708-33.732c-19.588-23.021-65.147-63.564-58.208-99.545 6.73-34.906 66.738-39.785 79.129-13.162 1.882 4.045 2.492 7.251 4.054 8.845.811.878 1.854 1.318 3.07 1.318 1.681 0 2.955-.44 3.765-1.318 1.682-1.705 1.891-5.412 4.402-8.845 30.508-41.68 100.682-.485 73.531 48.007-5.414 9.67-12.973 17.784-26.898 34.398-13.934 16.621-22.117 27.251-25.605 31.259l-28.532 32.775z"/><g><path fill-rule="evenodd" clip-rule="evenodd" fill="#E30613" d="M63.061 179.146l-13.637-15.485c-9.307-10.565-30.951-29.176-27.655-45.692 3.198-16.024 31.705-18.262 37.59-6.044.896 1.859 1.185 3.33 1.928 4.06.386.405.878.607 1.457.607.8 0 1.404-.202 1.79-.607.799-.78.898-2.483 2.091-4.06 14.492-19.132 47.83-.222 34.931 22.036-2.572 4.441-6.163 8.165-12.779 15.792-6.617 7.628-10.506 12.509-12.162 14.348l-13.554 15.045z"/></g></svg>