<svg xmlns="http://www.w3.org/2000/svg" width="300" height="412"><path fill="#FFF" d="M19.406 2.477h261.182c9.311 0 16.93 7.587 16.93 16.861v373.333c0 9.274-7.619 16.86-16.93 16.86H19.406c-9.31 0-16.927-7.586-16.927-16.86V19.338c0-9.275 7.617-16.861 16.927-16.861z"/><path fill="#C6C6C6" d="M280.588 412H19.406C8.706 412 0 403.329 0 392.671V19.338C0 8.679 8.706.008 19.406.008h261.182c10.703 0 19.41 8.671 19.41 19.33v373.333c0 10.658-8.707 19.329-19.41 19.329zM19.406 4.946c-7.967 0-14.448 6.457-14.448 14.392v373.333c0 7.936 6.481 14.392 14.448 14.392h261.182c7.969 0 14.451-6.456 14.451-14.392V19.338c0-7.936-6.482-14.392-14.451-14.392H19.406z"/><path d="M35.584 76.456l13.856-1.453c.392 3.203 1.574 5.746 3.515 7.616 1.944 1.887 4.193 2.822 6.728 2.822 2.908 0 5.374-1.213 7.384-3.619 2.012-2.422 3.027-6.075 3.027-10.941 0-4.551-.997-7.979-3.007-10.264-1.996-2.284-4.598-3.426-7.793-3.426-3.988 0-7.571 1.816-10.746 5.434l-11.291-1.68 7.132-38.687h36.79v13.327H54.934l-2.18 12.637c3.11-1.593 6.271-2.388 9.514-2.388 6.168 0 11.41 2.301 15.685 6.888 4.292 4.605 6.437 10.577 6.437 17.916 0 6.11-1.724 11.58-5.187 16.375-4.731 6.561-11.274 9.833-19.653 9.833-6.713 0-12.17-1.835-16.394-5.522-4.228-3.686-6.761-8.637-7.572-14.868z"/><path fill-rule="evenodd" clip-rule="evenodd" d="M147.603 326.537c.08-3.038-.408-3.419-2.483-2.598l-16.675 13.817c-33.679 26.971-84.185-12.822-47.077-56.201 26.616-25.106 51.216-48.797 69.971-73.334 18.514 22.467 39.074 45.374 65.381 70.068 18.756 18.079 23.408 37.37 9.801 57.39-26.072 20.014-48.807 9.87-66.02-7.567-2.324-2.354-5.539-7.838-5.695-1.11 2.895 27.325 11.604 36.531 35.584 47.888l-76.963-.153c24.827-12.077 32.804-20.96 34.176-48.2z"/><g><path fill-rule="evenodd" clip-rule="evenodd" d="M58.633 157.655c.037-1.375-.184-1.549-1.125-1.177l-7.555 6.26c-15.26 12.22-38.142-5.81-21.33-25.463 12.06-11.375 23.204-22.11 31.702-33.229 8.388 10.181 17.706 20.56 29.624 31.749 8.498 8.19 10.607 16.932 4.438 26-11.809 9.069-22.111 4.473-29.909-3.427-1.055-1.066-2.512-3.55-2.583-.503 1.312 12.382 5.258 16.552 16.124 21.699l-34.871-.07c11.25-5.473 14.865-9.497 15.485-21.839z"/></g></svg>