<svg xmlns="http://www.w3.org/2000/svg" width="300" height="412"><path fill="#FFF" d="M19.407 2.471h261.187c9.311 0 16.928 7.586 16.928 16.861v373.339c0 9.274-7.617 16.86-16.928 16.86H19.407c-9.311 0-16.928-7.586-16.928-16.86V19.332c0-9.275 7.617-16.861 16.928-16.861z"/><path fill="#C6C6C6" d="M280.594 412H19.407C8.706 412 0 403.329 0 392.671V19.332C0 8.674 8.706.002 19.407.002h261.187C291.295.002 300 8.674 300 19.332v373.339c0 10.658-8.705 19.329-19.406 19.329zM19.407 4.94c-7.968 0-14.45 6.457-14.45 14.392v373.339c0 7.936 6.482 14.392 14.45 14.392h261.187c7.967 0 14.449-6.456 14.449-14.392V19.332c0-7.936-6.482-14.392-14.449-14.392H19.407z"/><path d="M86.048 40.354l-14.17 1.526c-.337-2.845-1.243-4.942-2.702-6.313-1.457-1.352-3.359-2.029-5.688-2.029-3.076 0-5.688 1.354-7.841 4.075-2.132 2.706-3.465 8.342-4.036 16.91 3.663-4.198 8.178-6.296 13.601-6.296 6.116 0 11.343 2.272 15.697 6.816 4.356 4.527 6.543 10.389 6.543 17.57 0 7.63-2.293 13.735-6.88 18.349-4.568 4.596-10.472 6.902-17.654 6.902-7.698 0-14.045-2.912-19.003-8.758-4.961-5.844-7.45-15.417-7.45-28.739 0-13.648 2.578-23.482 7.752-29.516 5.172-6.037 11.892-9.054 20.16-9.054 5.794 0 10.595 1.595 14.399 4.751 3.807 3.175 6.224 7.771 7.272 13.806zM52.875 71.503c0 4.63 1.084 8.22 3.271 10.735 2.188 2.532 4.693 3.797 7.501 3.797 2.721 0 4.961-1.039 6.774-3.104 1.812-2.063 2.701-5.461 2.701-10.164 0-4.837-.958-8.393-2.915-10.647-1.939-2.254-4.374-3.382-7.29-3.382-2.808 0-5.19 1.075-7.13 3.225-1.952 2.152-2.912 5.342-2.912 9.54z"/><path fill-rule="evenodd" clip-rule="evenodd" d="M191.523 380.508l-75.453-.796c27.259-13.932 34.531-29.84 33.234-55.778-.183-3.686-.405-6.941-.705-7.443-1.231-2.067-14.084 11.115-15.411 12.908-10.034 13.551-55.068 24.462-64.388-11.257-6.707-25.699 17.838-41.125 41.551-37.74 4.987.712 14.004 5.343 21.018 11.604 6.585 5.88 9.839 12.621 15.831 12.896 9.14.417-5.808-21.536-11.267-27.335-23.365-24.819-17.647-66.631 19.063-66.631 35.559 0 40.043 36.25 17.26 65.195-4.582 5.822-18.424 22.926-11.336 28.238 1.701 1.276 6.857-1.498 12.016-7.075 9.186-9.927 22.711-18.548 36.738-18.548 15.283 0 29.086 10.062 31.211 25.693 3.201 23.557-10.34 38.05-33.164 39.414-23.225 1.387-40.027-27.368-46.209-27.368-1.146 0-1.617 3.257-1.771 6.854-1.303 30.29 6.138 41.695 31.782 57.169z"/><g><path fill-rule="evenodd" clip-rule="evenodd" d="M81.16 182.794l-35.734-.356c12.909-6.271 16.353-13.432 15.74-25.105-.087-1.659-.192-3.125-.334-3.351-.583-.93-6.67 5.003-7.298 5.81-4.753 6.1-26.081 11.011-30.495-5.066-3.176-11.565 8.448-18.51 19.68-16.985 2.36.32 6.63 2.403 9.953 5.222 3.118 2.648 4.66 5.681 7.497 5.803 4.329.189-2.75-9.692-5.335-12.303-11.064-11.168-8.357-29.989 9.029-29.989 16.839 0 18.964 16.317 8.174 29.344-2.17 2.62-8.726 10.317-5.371 12.709.807.574 3.249-.674 5.693-3.185 4.349-4.467 10.755-8.347 17.398-8.347 7.239 0 13.775 4.528 14.781 11.563 1.517 10.601-4.896 17.125-15.706 17.738-10.998.625-18.957-12.315-21.884-12.315-.542 0-.767 1.465-.839 3.083-.619 13.634 2.906 18.767 15.051 25.73z"/></g></svg>