<svg xmlns="http://www.w3.org/2000/svg" width="300" height="412"><path fill="#FFF" d="M19.408 2.473H280.59c9.314 0 16.93 7.586 16.93 16.861v373.337c0 9.274-7.615 16.86-16.93 16.86H19.408c-9.312 0-16.929-7.586-16.929-16.86V19.334c0-9.275 7.616-16.861 16.929-16.861z"/><path fill="#C6C6C6" d="M280.59 412H19.408C8.706 412 0 403.329 0 392.671V19.334C0 8.676 8.706.004 19.408.004H280.59c10.703 0 19.408 8.672 19.408 19.33v373.337c0 10.658-8.705 19.329-19.408 19.329zM19.408 4.942c-7.968 0-14.45 6.457-14.45 14.392v373.337c0 7.936 6.482 14.392 14.45 14.392H280.59c7.969 0 14.451-6.456 14.451-14.392V19.334c0-7.936-6.482-14.392-14.451-14.392H19.408z"/><path fill="#E30613" d="M86.497 40.356l-14.168 1.526c-.338-2.845-1.242-4.943-2.702-6.313-1.457-1.352-3.36-2.029-5.689-2.029-3.073 0-5.687 1.354-7.838 4.075-2.135 2.705-3.467 8.342-4.037 16.91 3.662-4.198 8.178-6.296 13.602-6.296 6.115 0 11.341 2.272 15.696 6.816 4.357 4.526 6.543 10.389 6.543 17.57 0 7.63-2.293 13.735-6.88 18.349-4.567 4.594-10.472 6.901-17.653 6.901-7.699 0-14.046-2.913-19.005-8.758-4.96-5.844-7.449-15.417-7.449-28.738 0-13.648 2.58-23.482 7.75-29.517 5.173-6.036 11.895-9.053 20.161-9.053 5.794 0 10.596 1.595 14.402 4.751 3.802 3.175 6.221 7.771 7.267 13.806zm-33.17 31.148c0 4.631 1.083 8.22 3.268 10.736 2.188 2.532 4.694 3.797 7.504 3.797 2.718 0 4.96-1.04 6.772-3.105 1.813-2.062 2.701-5.461 2.701-10.163 0-4.837-.958-8.394-2.915-10.648-1.938-2.254-4.374-3.381-7.288-3.381-2.809 0-5.19 1.075-7.129 3.225-1.955 2.152-2.913 5.342-2.913 9.539z"/><path fill-rule="evenodd" clip-rule="evenodd" fill="#E30613" d="M154.822 374.554l-28.708-33.733c-19.589-23.019-65.147-63.562-58.208-99.545 6.73-34.906 66.738-39.785 79.129-13.163 1.882 4.048 2.491 7.251 4.053 8.847.811.878 1.854 1.316 3.07 1.316 1.678 0 2.953-.438 3.766-1.316 1.68-1.705 1.889-5.413 4.4-8.847 30.508-41.679 100.682-.483 73.533 48.007-5.414 9.673-12.973 17.787-26.898 34.399-13.934 16.622-22.115 27.252-25.605 31.26l-28.532 32.775z"/><g><path fill-rule="evenodd" clip-rule="evenodd" fill="#E30613" d="M66.735 179.299l-13.224-15.015c-9.023-10.246-30.009-28.291-26.812-44.306 3.102-15.536 30.742-17.708 36.448-5.859.868 1.802 1.148 3.229 1.868 3.937.375.392.856.587 1.415.587.774 0 1.361-.196 1.735-.587.774-.758.871-2.409 2.027-3.937 14.052-18.55 46.377-.215 33.871 21.369-2.495 4.303-5.976 7.915-12.391 15.309-6.418 7.398-10.186 12.13-11.793 13.914l-13.144 14.588z"/></g></svg>