<svg xmlns="http://www.w3.org/2000/svg" width="300" height="412"><path fill="#FFF" d="M19.409 2.477h261.183c9.309 0 16.926 7.586 16.926 16.861v373.333c0 9.274-7.617 16.86-16.926 16.86H19.409c-9.311 0-16.93-7.586-16.93-16.86V19.338c0-9.276 7.619-16.861 16.93-16.861z"/><path fill="#C6C6C6" d="M280.592 412H19.409C8.707 412 0 403.329 0 392.671V19.338C0 8.679 8.707.008 19.409.008h261.183c10.701 0 19.406 8.671 19.406 19.33v373.333c0 10.658-8.705 19.329-19.406 19.329zM19.409 4.946c-7.968 0-14.451 6.457-14.451 14.392v373.333c0 7.936 6.483 14.392 14.451 14.392h261.183c7.967 0 14.447-6.456 14.447-14.392V19.338c0-7.936-6.48-14.392-14.447-14.392H19.409z"/><path d="M86.544 40.359l-14.168 1.526c-.337-2.845-1.244-4.942-2.701-6.312-1.458-1.353-3.362-2.029-5.69-2.029-3.075 0-5.687 1.354-7.838 4.076-2.134 2.704-3.466 8.342-4.036 16.91 3.662-4.197 8.178-6.296 13.598-6.296 6.118 0 11.346 2.273 15.699 6.817 4.354 4.525 6.54 10.389 6.54 17.568 0 7.63-2.29 13.737-6.877 18.35-4.569 4.595-10.471 6.902-17.655 6.902-7.697 0-14.043-2.913-19.002-8.759-4.96-5.844-7.45-15.417-7.45-28.737 0-13.648 2.577-23.483 7.751-29.517 5.173-6.036 11.892-9.053 20.16-9.053 5.795 0 10.594 1.595 14.398 4.751 3.805 3.173 6.223 7.769 7.271 13.803zM53.375 71.508c0 4.631 1.083 8.219 3.269 10.735 2.185 2.532 4.691 3.796 7.503 3.796 2.719 0 4.958-1.039 6.772-3.103 1.812-2.063 2.702-5.462 2.702-10.163 0-4.838-.958-8.394-2.914-10.648-1.94-2.255-4.374-3.382-7.292-3.382-2.807 0-5.191 1.076-7.126 3.226-1.956 2.15-2.914 5.341-2.914 9.539z"/><path fill-rule="evenodd" clip-rule="evenodd" d="M150.024 329.253c.079-3.036-.408-3.42-2.483-2.596l-16.675 13.816c-33.679 26.972-84.185-12.823-47.077-56.202 26.615-25.104 51.216-48.796 69.97-73.334 18.514 22.467 39.074 45.373 65.381 70.069 18.756 18.078 23.408 37.368 9.801 57.388-26.07 20.014-48.807 9.87-66.02-7.566-2.324-2.354-5.539-7.838-5.695-1.111 2.895 27.326 11.604 36.533 35.586 47.892l-76.965-.155c24.828-12.077 32.805-20.962 34.177-48.201z"/><g><path fill-rule="evenodd" clip-rule="evenodd" d="M61.054 160.088c.037-1.376-.184-1.55-1.125-1.178l-7.555 6.259c-15.26 12.222-38.142-5.808-21.33-25.461 12.059-11.374 23.203-22.108 31.702-33.228 8.388 10.181 17.706 20.559 29.624 31.748 8.498 8.19 10.606 16.932 4.438 26.001-11.809 9.067-22.111 4.472-29.91-3.429-1.054-1.066-2.512-3.551-2.583-.503 1.312 12.38 5.258 16.552 16.124 21.698l-34.87-.069c11.249-5.471 14.864-9.497 15.485-21.838z"/></g></svg>