<svg xmlns="http://www.w3.org/2000/svg" width="300" height="412"><path fill="#FFF" d="M19.409 2.475h261.185c9.311 0 16.928 7.586 16.928 16.859v373.337c0 9.274-7.617 16.86-16.928 16.86H19.409c-9.311 0-16.93-7.586-16.93-16.86V19.334c0-9.273 7.619-16.859 16.93-16.859z"/><path fill="#C6C6C6" d="M280.594 412H19.409C8.707 412 0 403.329 0 392.671V19.334C0 8.677 8.707.006 19.409.006h261.185C291.295.006 300 8.677 300 19.334v373.337c0 10.658-8.705 19.329-19.406 19.329zM19.409 4.944c-7.968 0-14.451 6.456-14.451 14.39v373.337c0 7.936 6.483 14.392 14.451 14.392h261.185c7.967 0 14.449-6.456 14.449-14.392V19.334c0-7.935-6.482-14.39-14.449-14.39H19.409z"/><path fill="#E30613" d="M33.693 34.856v-13.45h49.142v10.511c-4.051 4.033-8.17 9.806-12.376 17.341-4.191 7.52-7.385 15.531-9.585 24-2.2 8.485-3.283 16.056-3.246 22.729H43.765c.247-10.459 2.375-21.111 6.423-31.974 4.034-10.88 9.429-20.582 16.184-29.156H33.693v-.001z"/><path fill-rule="evenodd" clip-rule="evenodd" fill="#E30613" d="M150.011 210.089c23.061 29.569 51.256 56.675 82.334 82.402-30.229 26.655-60.197 53.394-82.334 82.634-30.709-36.593-59.262-60.451-84.036-82.634 24.335-21.351 53.256-48.005 84.036-82.402z"/><g><path fill-rule="evenodd" clip-rule="evenodd" fill="#E30613" d="M59.974 104.737c10.495 13.458 23.328 25.793 37.471 37.502-13.754 12.131-27.396 24.3-37.471 37.609-13.975-16.655-26.97-27.513-38.247-37.609 11.076-9.718 24.238-21.848 38.247-37.502z"/></g></svg>