<svg xmlns="http://www.w3.org/2000/svg" width="300" height="412"><path fill="#FFF" d="M19.409 2.475h261.183c9.312 0 16.928 7.586 16.928 16.859v373.337c0 9.274-7.615 16.86-16.928 16.86H19.409c-9.313 0-16.93-7.586-16.93-16.86V19.334c0-9.273 7.616-16.859 16.93-16.859z"/><path fill="#C6C6C6" d="M280.592 412H19.409C8.707 412 0 403.329 0 392.671V19.334C0 8.677 8.707.006 19.409.006h261.183c10.701 0 19.406 8.671 19.406 19.328v373.337c0 10.658-8.705 19.329-19.406 19.329zM19.409 4.944c-7.968 0-14.451 6.456-14.451 14.39v373.337c0 7.936 6.483 14.392 14.451 14.392h261.183c7.969 0 14.449-6.456 14.449-14.392V19.334c0-7.935-6.48-14.39-14.449-14.39H19.409z"/><path fill="#E30613" d="M35.286 34.856v-13.45h49.139v10.511c-4.048 4.033-8.169 9.806-12.377 17.341-4.19 7.52-7.382 15.531-9.581 24-2.2 8.485-3.284 16.056-3.25 22.729H45.358c.244-10.459 2.373-21.111 6.424-31.974 4.034-10.88 9.426-20.582 16.181-29.156H35.286v-.001z"/><path fill-rule="evenodd" clip-rule="evenodd" fill="#E30613" d="M152.404 373.708l-28.708-33.73c-19.588-23.021-65.147-63.565-58.208-99.548 6.73-34.906 66.738-39.784 79.129-13.163 1.882 4.048 2.492 7.253 4.053 8.847.812.878 1.854 1.316 3.07 1.316 1.678 0 2.953-.438 3.766-1.316 1.68-1.704 1.889-5.413 4.4-8.847 30.51-41.679 100.682-.481 73.533 48.008-5.414 9.672-12.973 17.786-26.898 34.399-13.934 16.62-22.115 27.251-25.605 31.259l-28.532 32.775z"/><g><path fill-rule="evenodd" clip-rule="evenodd" fill="#E30613" d="M63.061 179.836l-13.637-15.485c-9.307-10.566-30.951-29.176-27.655-45.693 3.198-16.022 31.705-18.262 37.59-6.042.896 1.858 1.185 3.328 1.928 4.06.386.404.878.606 1.457.606.8 0 1.404-.202 1.79-.606.799-.782.898-2.485 2.091-4.06 14.492-19.131 47.83-.223 34.931 22.036-2.572 4.439-6.163 8.164-12.779 15.79-6.617 7.63-10.506 12.509-12.162 14.351l-13.554 15.043z"/></g></svg>