<?xml version="1.0" encoding="utf-8"?>
<!-- Generator: Adobe Illustrator 15.1.0, SVG Export Plug-In . SVG Version: 6.00 Build 0)  -->
<!DOCTYPE svg PUBLIC "-//W3C//DTD SVG 1.1//EN" "http://www.w3.org/Graphics/SVG/1.1/DTD/svg11.dtd">
<svg version="1.1" id="Layer_1" xmlns="http://www.w3.org/2000/svg" xmlns:xlink="http://www.w3.org/1999/xlink" x="0px" y="0px"
	 width="300px" height="412px" viewBox="0 0 300 412" enable-background="new 0 0 300 412" xml:space="preserve">
<g>
	<g>
		<path fill="#FFFFFF" d="M19.407,2.473h261.187c9.311,0,16.928,7.586,16.928,16.859v373.339c0,9.274-7.617,16.86-16.928,16.86
			H19.407c-9.311,0-16.928-7.586-16.928-16.86V19.332C2.479,10.059,10.096,2.473,19.407,2.473L19.407,2.473z"/>
		<path fill="#C6C6C6" d="M280.594,412H19.407C8.706,412,0,403.329,0,392.671V19.332C0,8.675,8.706,0.004,19.407,0.004h261.187
			C291.295,0.004,300,8.675,300,19.332v373.339C300,403.329,291.295,412,280.594,412z M19.407,4.942
			c-7.968,0-14.45,6.456-14.45,14.39v373.339c0,7.936,6.482,14.392,14.45,14.392h261.187c7.967,0,14.449-6.456,14.449-14.392V19.332
			c0-7.935-6.482-14.39-14.449-14.39H19.407z"/>
	</g>
	<g>
		<path fill-rule="evenodd" clip-rule="evenodd" d="M191.826,378.513l-75.452-0.796c27.26-13.932,34.531-29.84,33.236-55.779
			c-0.183-3.686-0.406-6.941-0.705-7.443c-1.231-2.066-14.085,11.115-15.412,12.907c-10.034,13.552-55.068,24.464-64.387-11.255
			c-6.708-25.699,17.836-41.127,41.551-37.741c4.985,0.713,14.002,5.344,21.016,11.603c6.587,5.881,9.841,12.623,15.833,12.896
			c9.14,0.421-5.809-21.535-11.269-27.334c-23.363-24.817-17.647-66.631,19.065-66.631c35.559,0,40.045,36.251,17.262,65.198
			c-4.584,5.82-18.426,22.922-11.34,28.237c1.703,1.276,6.857-1.5,12.018-7.077c9.184-9.928,22.709-18.547,36.738-18.547
			c15.281,0,29.086,10.062,31.211,25.691c3.201,23.559-10.342,38.051-33.164,39.416c-23.223,1.386-40.025-27.367-46.207-27.367
			c-1.148,0-1.619,3.255-1.775,6.852C158.74,351.635,166.184,363.037,191.826,378.513L191.826,378.513z"/>
	</g>
	<g>
		<path fill-rule="evenodd" clip-rule="evenodd" d="M81.16,179.306l-35.734-0.358c12.909-6.27,16.353-13.429,15.74-25.104
			c-0.087-1.661-0.192-3.125-0.334-3.351c-0.583-0.929-6.67,5.002-7.298,5.811c-4.753,6.099-26.081,11.009-30.495-5.065
			c-3.176-11.567,8.448-18.511,19.68-16.985c2.36,0.319,6.63,2.404,9.953,5.22c3.118,2.648,4.66,5.681,7.497,5.806
			c4.329,0.189-2.75-9.693-5.335-12.304c-11.064-11.17-8.357-29.988,9.029-29.988c16.839,0,18.964,16.315,8.174,29.344
			c-2.17,2.619-8.726,10.316-5.371,12.707c0.807,0.577,3.249-0.673,5.693-3.184c4.349-4.466,10.755-8.348,17.398-8.348
			c7.239,0,13.775,4.528,14.781,11.564c1.517,10.604-4.896,17.125-15.706,17.74c-10.998,0.623-18.957-12.317-21.884-12.317
			c-0.542,0-0.767,1.465-0.839,3.084C65.49,167.21,69.015,172.343,81.16,179.306L81.16,179.306z"/>
	</g>
	<g>
		<path d="M50.047,53.019c-3.71-1.609-6.412-3.827-8.085-6.635c-1.689-2.808-2.526-5.9-2.526-9.244
			c0-5.724,1.934-10.463,5.835-14.201c3.904-3.737,9.444-5.614,16.623-5.614c7.108,0,12.632,1.877,16.551,5.614
			c3.938,3.738,5.907,8.477,5.907,14.201c0,3.558-0.906,6.725-2.719,9.515c-1.793,2.771-4.337,4.899-7.596,6.365
			c4.146,1.698,7.3,4.203,9.461,7.493c2.16,3.274,3.24,7.064,3.24,11.357c0,7.098-2.194,12.858-6.602,17.293
			c-4.408,4.437-10.263,6.653-17.581,6.653c-6.812,0-12.475-1.824-17.005-5.49c-5.349-4.345-8.014-10.283-8.014-17.83
			c0-4.149,1.01-7.957,3.013-11.445C42.555,57.58,45.726,54.896,50.047,53.019L50.047,53.019z M53.008,38.194
			c0,2.933,0.801,5.222,2.423,6.85c1.62,1.644,3.762,2.468,6.463,2.468c2.718,0,4.896-0.825,6.532-2.487
			c1.621-1.664,2.44-3.954,2.44-6.885c0-2.772-0.801-4.972-2.423-6.635c-1.62-1.665-3.744-2.486-6.411-2.486
			c-2.753,0-4.947,0.84-6.585,2.502C53.828,33.204,53.008,35.422,53.008,38.194L53.008,38.194z M51.685,71.082
			c0,4.061,1.011,7.225,3.032,9.497c2.021,2.271,4.547,3.397,7.578,3.397c2.962,0,5.419-1.09,7.354-3.271
			c1.933-2.183,2.909-5.331,2.909-9.462c0-3.593-0.992-6.49-2.961-8.673c-1.969-2.18-4.478-3.272-7.51-3.272
			c-3.502,0-6.116,1.252-7.823,3.719C52.538,65.503,51.685,68.185,51.685,71.082L51.685,71.082z"/>
	</g>
</g>
</svg>
