<svg xmlns="http://www.w3.org/2000/svg" width="300" height="412"><path fill="#FFF" d="M19.409 2.479h261.183c9.309 0 16.926 7.586 16.926 16.859v373.333c0 9.273-7.617 16.86-16.926 16.86H19.409c-9.311 0-16.93-7.587-16.93-16.86V19.338c0-9.274 7.619-16.859 16.93-16.859z"/><path fill="#C6C6C6" d="M280.592 412H19.409C8.707 412 0 403.329 0 392.671V19.338C0 8.681 8.707.01 19.409.01h261.183c10.701 0 19.406 8.671 19.406 19.328v373.333c0 10.658-8.705 19.329-19.406 19.329zM19.409 4.947c-7.968 0-14.451 6.456-14.451 14.391v373.333c0 7.936 6.483 14.392 14.451 14.392h261.183c7.967 0 14.447-6.456 14.447-14.392V19.338c0-7.935-6.48-14.391-14.447-14.391H19.409z"/><path fill-rule="evenodd" clip-rule="evenodd" d="M151.154 324.862c.08-2.974-.396-3.35-2.429-2.542l-16.339 13.536c-32.998 26.425-82.481-12.563-46.122-55.066 26.076-24.596 50.175-47.807 68.554-71.85 18.139 22.013 38.283 44.458 64.061 68.652 18.371 17.714 22.93 36.613 9.598 56.227-25.545 19.608-47.82 9.67-64.682-7.413-2.279-2.307-5.432-7.678-5.578-1.088 2.834 26.772 11.367 35.791 34.865 46.92l-75.409-.15c24.323-11.833 32.14-20.536 33.481-47.226z"/><path d="M50.546 53.023c-3.714-1.61-6.413-3.828-8.085-6.635-1.69-2.807-2.529-5.901-2.529-9.245 0-5.723 1.937-10.462 5.837-14.2 3.904-3.736 9.446-5.614 16.624-5.614 7.107 0 12.628 1.878 16.55 5.614 3.937 3.738 5.906 8.477 5.906 14.2 0 3.559-.906 6.726-2.718 9.515-1.794 2.771-4.337 4.901-7.597 6.366 4.147 1.698 7.3 4.202 9.462 7.493 2.16 3.274 3.241 7.064 3.241 11.357 0 7.098-2.197 12.858-6.603 17.292-4.408 4.437-10.262 6.653-17.582 6.653-6.812 0-12.472-1.824-17.003-5.489-5.349-4.346-8.014-10.284-8.014-17.83 0-4.149 1.009-7.958 3.013-11.446 2.005-3.47 5.178-6.153 9.498-8.031zM53.505 38.2c0 2.932.802 5.22 2.424 6.849 1.619 1.643 3.762 2.467 6.463 2.467 2.719 0 4.896-.824 6.531-2.486 1.622-1.665 2.441-3.954 2.441-6.885 0-2.772-.802-4.972-2.421-6.635-1.622-1.665-3.747-2.486-6.412-2.486-2.753 0-4.947.84-6.585 2.503-1.622 1.682-2.441 3.899-2.441 6.673zm-1.323 32.885c0 4.06 1.012 7.225 3.033 9.498 2.021 2.27 4.547 3.396 7.578 3.396 2.962 0 5.417-1.09 7.353-3.271 1.934-2.184 2.909-5.332 2.909-9.462 0-3.594-.993-6.491-2.962-8.673-1.967-2.181-4.476-3.273-7.51-3.273-3.501 0-6.115 1.253-7.821 3.72-1.727 2.488-2.58 5.168-2.58 8.065z"/><g><path fill-rule="evenodd" clip-rule="evenodd" d="M61.054 156.6c.037-1.377-.184-1.55-1.125-1.177l-7.555 6.26c-15.26 12.219-38.142-5.811-21.33-25.464 12.059-11.374 23.203-22.109 31.702-33.227 8.388 10.179 17.706 20.558 29.624 31.747 8.498 8.192 10.606 16.932 4.438 26.003-11.809 9.067-22.111 4.471-29.91-3.429-1.054-1.065-2.512-3.549-2.583-.503 1.312 12.38 5.258 16.554 16.124 21.698l-34.87-.069c11.249-5.473 14.864-9.499 15.485-21.839z"/></g></svg>