<svg xmlns="http://www.w3.org/2000/svg" width="300" height="412"><path fill="#FFF" d="M19.407 2.472h261.185c9.312 0 16.928 7.587 16.928 16.858v373.339c0 9.275-7.615 16.862-16.928 16.862H19.407c-9.312 0-16.928-7.587-16.928-16.862V19.33c0-9.271 7.617-16.858 16.928-16.858z"/><path fill="#C6C6C6" d="M280.592 412H19.407C8.706 412 0 403.328 0 392.669V19.33C0 8.674 8.706.003 19.407.003h261.185c10.701 0 19.406 8.671 19.406 19.327v373.339c0 10.659-8.705 19.331-19.406 19.331zM19.407 4.941c-7.968 0-14.45 6.455-14.45 14.389v373.339c0 7.937 6.482 14.394 14.45 14.394h261.185c7.969 0 14.449-6.457 14.449-14.394V19.33c0-7.934-6.48-14.389-14.449-14.389H19.407z"/><path fill-rule="evenodd" clip-rule="evenodd" d="M187.941 377.729l-74.448-.784c26.897-13.744 34.071-29.441 32.792-55.036-.182-3.637-.4-6.85-.696-7.344-1.213-2.038-13.896 10.97-15.206 12.736-9.899 13.372-54.335 24.137-63.531-11.107-6.616-25.357 17.602-40.577 40.999-37.237 4.92.702 13.818 5.271 20.738 11.448 6.498 5.802 9.71 12.455 15.62 12.725 9.02.413-5.729-21.248-11.117-26.972-23.051-24.486-17.412-65.745 18.812-65.745 35.084 0 39.508 35.769 17.027 64.33-4.52 5.743-18.176 22.619-11.186 27.863 1.68 1.261 6.768-1.48 11.857-6.983 9.062-9.798 22.408-18.302 36.248-18.302 15.082 0 28.701 9.928 30.797 25.352 3.16 23.245-10.203 37.544-32.723 38.89-22.914 1.369-39.492-27.003-45.594-27.003-1.133 0-1.596 3.214-1.75 6.763-1.283 29.887 6.059 41.142 31.361 56.406zM78.741 182.057l-35.734-.357c12.909-6.269 16.353-13.428 15.74-25.104-.088-1.66-.193-3.125-.334-3.351-.583-.929-6.671 5.003-7.298 5.811-4.753 6.099-26.081 11.009-30.495-5.065-3.176-11.568 8.448-18.51 19.68-16.986 2.36.319 6.63 2.402 9.953 5.221 3.118 2.645 4.661 5.681 7.497 5.805 4.329.188-2.75-9.692-5.335-12.304-11.064-11.169-8.356-29.988 9.029-29.988 16.839 0 18.963 16.314 8.174 29.341-2.17 2.623-8.726 10.32-5.371 12.711.806.573 3.249-.675 5.692-3.185 4.349-4.466 10.755-8.349 17.399-8.349 7.238 0 13.774 4.529 14.78 11.564 1.517 10.602-4.896 17.124-15.706 17.739-10.998.624-18.957-12.318-21.883-12.318-.543 0-.767 1.465-.839 3.086-.618 13.634 2.907 18.764 15.051 25.729z"/><g><path d="M37.096 79.088l13.512-1.573c.34 2.897 1.205 5.042 2.596 6.438 1.389 1.395 3.222 2.092 5.511 2.092 2.882 0 5.324-1.395 7.341-4.184 2.034-2.79 3.322-8.586 3.882-17.401-3.51 4.308-7.901 6.457-13.158 6.457-5.729 0-10.68-2.344-14.834-6.994-4.155-4.667-6.24-10.732-6.24-18.205 0-7.798 2.205-14.075 6.596-18.849 4.375-4.757 9.969-7.155 16.751-7.155 7.392 0 13.446 3.021 18.193 9.049 4.73 6.028 7.104 15.933 7.104 29.723 0 14.058-2.475 24.179-7.409 30.402-4.934 6.206-11.361 9.317-19.278 9.317-5.697 0-10.292-1.592-13.801-4.791-3.511-3.202-5.765-7.976-6.766-14.326zm31.605-32.173c0-4.757-1.035-8.441-3.102-11.053-2.071-2.629-4.478-3.934-7.19-3.934-2.577 0-4.73 1.073-6.425 3.219-1.712 2.146-2.561 5.669-2.561 10.571 0 4.952.934 8.6 2.782 10.91 1.847 2.323 4.17 3.483 6.95 3.483 2.681 0 4.951-1.107 6.782-3.342 1.848-2.237 2.764-5.526 2.764-9.854z"/></g></svg>