<svg xmlns="http://www.w3.org/2000/svg" width="300" height="412"><path fill="#FFF" d="M19.409 2.475h261.185c9.311 0 16.928 7.587 16.928 16.858V392.67c0 9.275-7.617 16.861-16.928 16.861H19.409c-9.311 0-16.93-7.586-16.93-16.861V19.333c0-9.271 7.619-16.858 16.93-16.858z"/><path fill="#C6C6C6" d="M280.594 412H19.409C8.707 412 0 403.329 0 392.67V19.333C0 8.677 8.707.006 19.409.006h261.185C291.295.006 300 8.677 300 19.333V392.67c0 10.659-8.705 19.33-19.406 19.33zM19.409 4.944c-7.968 0-14.451 6.455-14.451 14.389V392.67c0 7.937 6.483 14.393 14.451 14.393h261.185c7.967 0 14.449-6.456 14.449-14.393V19.333c0-7.934-6.482-14.389-14.449-14.389H19.409z"/><path fill-rule="evenodd" clip-rule="evenodd" fill="#E30613" d="M150.496 210.415c23.061 29.569 51.256 56.677 82.334 82.4-30.229 26.659-60.197 53.396-82.334 82.635-30.71-36.594-59.262-60.449-84.035-82.635 24.333-21.35 53.254-48.003 84.035-82.4z"/><path fill="#E30613" d="M34.739 79.09l13.513-1.572c.341 2.897 1.206 5.042 2.594 6.438 1.39 1.394 3.221 2.091 5.512 2.091 2.882 0 5.323-1.394 7.341-4.184 2.033-2.789 3.322-8.586 3.881-17.401-3.509 4.309-7.9 6.458-13.156 6.458-5.729 0-10.681-2.344-14.835-6.994-4.155-4.667-6.239-10.731-6.239-18.205 0-7.798 2.205-14.076 6.596-18.849 4.375-4.757 9.968-7.155 16.752-7.155 7.39 0 13.445 3.021 18.191 9.049 4.731 6.028 7.104 15.933 7.104 29.723 0 14.057-2.475 24.179-7.41 30.401-4.933 6.206-11.359 9.318-19.277 9.318-5.695 0-10.29-1.593-13.799-4.792-3.514-3.202-5.767-7.976-6.768-14.326zm31.606-32.172c0-4.757-1.035-8.442-3.104-11.054-2.069-2.628-4.477-3.933-7.189-3.933-2.577 0-4.728 1.073-6.424 3.219-1.712 2.146-2.562 5.668-2.562 10.571 0 4.952.936 8.599 2.781 10.909 1.849 2.324 4.172 3.484 6.951 3.484 2.679 0 4.953-1.107 6.784-3.342 1.847-2.237 2.763-5.526 2.763-9.854z"/><g><path fill-rule="evenodd" clip-rule="evenodd" fill="#E30613" d="M59.974 105.743c10.495 13.456 23.328 25.794 37.471 37.503-13.754 12.132-27.396 24.301-37.471 37.607-13.975-16.652-26.97-27.511-38.247-37.607 11.076-9.718 24.238-21.848 38.247-37.503z"/></g></svg>