<svg xmlns="http://www.w3.org/2000/svg" width="300" height="412"><path fill="#FFF" d="M19.406 2.479h261.182c9.311 0 16.93 7.586 16.93 16.857v373.333c0 9.276-7.619 16.862-16.93 16.862H19.406c-9.31 0-16.927-7.586-16.927-16.862V19.336c0-9.272 7.617-16.857 16.927-16.857z"/><path fill="#C6C6C6" d="M280.588 412H19.406C8.706 412 0 403.328 0 392.669V19.336C0 8.68 8.706.01 19.406.01h261.182c10.703 0 19.41 8.67 19.41 19.326v373.333c0 10.659-8.707 19.331-19.41 19.331zM19.406 4.947c-7.967 0-14.448 6.455-14.448 14.389v373.333c0 7.937 6.481 14.394 14.448 14.394h261.182c7.969 0 14.451-6.457 14.451-14.394V19.336c0-7.934-6.482-14.389-14.451-14.389H19.406z"/><path fill-rule="evenodd" clip-rule="evenodd" d="M148.085 328.735c.082-3.038-.403-3.419-2.478-2.599l-16.677 13.815c-33.68 26.972-84.184-12.82-47.077-56.202 26.616-25.102 51.213-48.793 69.971-73.334 18.514 22.469 39.074 45.378 65.381 70.07 18.756 18.077 23.408 37.37 9.801 57.39-26.072 20.014-48.807 9.869-66.02-7.568-2.324-2.352-5.543-7.836-5.695-1.11 2.895 27.328 11.604 36.532 35.586 47.891l-76.966-.155c24.825-12.077 32.805-20.959 34.174-48.198z"/><path d="M37.59 79.093l13.513-1.572c.341 2.896 1.206 5.042 2.594 6.438 1.39 1.394 3.221 2.091 5.511 2.091 2.883 0 5.324-1.395 7.342-4.185 2.036-2.789 3.322-8.585 3.881-17.399-3.506 4.308-7.9 6.457-13.156 6.457-5.729 0-10.681-2.344-14.834-6.994-4.153-4.667-6.24-10.731-6.24-18.205 0-7.798 2.206-14.075 6.596-18.849 4.375-4.757 9.967-7.154 16.751-7.154 7.393 0 13.446 3.021 18.19 9.049 4.731 6.027 7.104 15.932 7.104 29.722 0 14.057-2.475 24.179-7.407 30.401-4.936 6.206-11.362 9.317-19.28 9.317-5.694 0-10.29-1.592-13.799-4.791-3.51-3.202-5.765-7.976-6.766-14.326zm31.605-32.172c0-4.757-1.034-8.441-3.104-11.053-2.069-2.629-4.473-3.933-7.189-3.933-2.574 0-4.728 1.072-6.424 3.218-1.712 2.146-2.562 5.669-2.562 10.571 0 4.952.936 8.6 2.784 10.909 1.845 2.324 4.17 3.484 6.951 3.484 2.676 0 4.95-1.107 6.781-3.342 1.848-2.237 2.763-5.526 2.763-9.854z"/><g><path fill-rule="evenodd" clip-rule="evenodd" d="M58.633 159.354c.037-1.378-.184-1.551-1.125-1.178l-7.555 6.259c-15.26 12.219-38.142-5.811-21.33-25.464 12.06-11.375 23.204-22.11 31.702-33.229 8.388 10.182 17.706 20.56 29.624 31.749 8.498 8.19 10.607 16.932 4.438 26.002-11.809 9.066-22.111 4.47-29.909-3.43-1.055-1.066-2.512-3.549-2.583-.502 1.312 12.381 5.258 16.551 16.124 21.698l-34.871-.07c11.25-5.472 14.865-9.496 15.485-21.835z"/></g></svg>