<svg xmlns="http://www.w3.org/2000/svg" width="300" height="412"><path fill="#FFF" d="M19.407 2.472h261.187c9.311 0 16.928 7.587 16.928 16.861v373.338c0 9.273-7.617 16.86-16.928 16.86H19.407c-9.311 0-16.928-7.587-16.928-16.86V19.333c0-9.274 7.617-16.861 16.928-16.861z"/><path fill="#C6C6C6" d="M280.594 412H19.407C8.706 412 0 403.329 0 392.671V19.333C0 8.675 8.706.003 19.407.003h261.187C291.295.003 300 8.675 300 19.333v373.338c0 10.658-8.705 19.329-19.406 19.329zM19.407 4.941c-7.968 0-14.45 6.457-14.45 14.392v373.338c0 7.936 6.482 14.392 14.45 14.392h261.187c7.967 0 14.449-6.456 14.449-14.392V19.333c0-7.936-6.482-14.392-14.449-14.392H19.407z"/><path fill-rule="evenodd" clip-rule="evenodd" d="M190.002 374.388l-75.452-.794c27.258-13.934 34.53-29.84 33.234-55.778-.183-3.685-.406-6.944-.705-7.445-1.231-2.067-14.083 11.117-15.412 12.907-10.033 13.553-55.066 24.466-64.387-11.253-6.708-25.698 17.838-41.127 41.551-37.74 4.986.71 14.004 5.342 21.017 11.601 6.585 5.882 9.84 12.622 15.832 12.897 9.14.419-5.807-21.536-11.267-27.337-23.363-24.817-17.647-66.628 19.065-66.628 35.557 0 40.043 36.25 17.26 65.196-4.582 5.821-18.424 22.923-11.338 28.239 1.701 1.275 6.857-1.503 12.018-7.079 9.184-9.928 22.709-18.547 36.736-18.547 15.283 0 29.088 10.062 31.213 25.693 3.201 23.557-10.342 38.048-33.166 39.415-23.223 1.386-40.023-27.368-46.207-27.368-1.148 0-1.617 3.256-1.773 6.854-1.305 30.291 6.138 41.695 31.781 57.167zM87.219 177.856l-35.734-.359c12.91-6.268 16.354-13.428 15.74-25.102-.086-1.661-.192-3.126-.334-3.352-.583-.929-6.669 5.003-7.298 5.812-4.752 6.098-26.081 11.008-30.494-5.066-3.175-11.568 8.448-18.51 19.679-16.986 2.362.319 6.631 2.403 9.953 5.221 3.118 2.646 4.661 5.68 7.497 5.805 4.33.189-2.75-9.693-5.335-12.305-11.064-11.169-8.357-29.987 9.029-29.987 16.84 0 18.964 16.314 8.174 29.343-2.17 2.621-8.726 10.317-5.371 12.708.807.573 3.249-.675 5.693-3.184 4.35-4.467 10.755-8.35 17.398-8.35 7.239 0 13.774 4.529 14.781 11.565 1.517 10.603-4.896 17.128-15.706 17.739-10.998.625-18.957-12.318-21.884-12.318-.543 0-.767 1.469-.839 3.086-.618 13.635 2.907 18.768 15.051 25.73z"/><g><path d="M106.679 92.36H90.211l-6.543-17.016H53.716L47.541 92.36H31.492l29.185-74.885h15.997l30.005 74.885zM78.82 62.737l-10.328-27.79-10.118 27.79H78.82z"/></g></svg>