<svg xmlns="http://www.w3.org/2000/svg" width="300" height="412"><path fill="#FFF" d="M19.409 2.469h261.183c9.309 0 16.926 7.586 16.926 16.861v373.332c0 9.273-7.617 16.859-16.926 16.859H19.409c-9.311 0-16.93-7.586-16.93-16.859V19.33c0-9.275 7.619-16.861 16.93-16.861z"/><path fill="#C6C6C6" d="M280.592 411.99H19.409C8.707 411.99 0 403.32 0 392.662V19.33C0 8.671 8.707 0 19.409 0h261.183c10.701 0 19.406 8.671 19.406 19.33v373.332c0 10.658-8.705 19.328-19.406 19.328zM19.409 4.938c-7.968 0-14.451 6.457-14.451 14.393v373.332c0 7.935 6.483 14.391 14.451 14.391h261.183c7.967 0 14.447-6.456 14.447-14.391V19.33c0-7.936-6.48-14.393-14.447-14.393H19.409z"/><path fill-rule="evenodd" clip-rule="evenodd" d="M149.717 323.127c.08-3.039-.405-3.419-2.479-2.599l-16.675 13.818c-33.68 26.968-84.185-12.824-47.078-56.201 26.617-25.106 51.214-48.797 69.97-73.335 18.514 22.466 39.074 45.374 65.383 70.07 18.752 18.078 23.406 37.367 9.801 57.388-26.072 20.013-48.811 9.868-66.021-7.569-2.322-2.352-5.541-7.834-5.693-1.109 2.895 27.327 11.604 36.531 35.584 47.89l-76.962-.154c24.822-12.077 32.801-20.959 34.17-48.199z"/><path d="M107.176 92.355H90.709L84.167 75.34H54.213L48.04 92.355H31.99l29.183-74.883H77.17l30.006 74.883zM79.319 62.733l-10.33-27.79-10.117 27.79h20.447z"/><g><path fill-rule="evenodd" clip-rule="evenodd" d="M67.112 155.142c.037-1.377-.182-1.55-1.123-1.177l-7.555 6.26c-15.259 12.219-38.142-5.811-21.331-25.465 12.062-11.375 23.205-22.105 31.704-33.228 8.389 10.181 17.703 20.56 29.624 31.749 8.495 8.19 10.604 16.932 4.438 26.002-11.812 9.066-22.113 4.471-29.912-3.43-1.052-1.064-2.512-3.549-2.58-.502 1.311 12.381 5.256 16.553 16.124 21.697l-34.873-.068c11.249-5.474 14.866-9.498 15.484-21.838z"/></g></svg>