<svg xmlns="http://www.w3.org/2000/svg" width="300" height="412"><path fill="#FFF" d="M19.407 2.469h261.187c9.311 0 16.928 7.586 16.928 16.861v373.339c0 9.275-7.617 16.862-16.928 16.862H19.407c-9.311 0-16.928-7.587-16.928-16.862V19.33c0-9.274 7.617-16.861 16.928-16.861z"/><path fill="#C6C6C6" d="M280.594 412H19.407C8.706 412 0 403.328 0 392.669V19.33C0 8.672 8.706 0 19.407 0h261.187C291.295 0 300 8.672 300 19.33v373.339c0 10.659-8.705 19.331-19.406 19.331zM19.407 4.938c-7.968 0-14.45 6.457-14.45 14.392v373.339c0 7.937 6.482 14.394 14.45 14.394h261.187c7.967 0 14.449-6.457 14.449-14.394V19.33c0-7.936-6.482-14.392-14.449-14.392H19.407z"/><path fill-rule="evenodd" clip-rule="evenodd" d="M191.523 375.427l-75.453-.796c27.259-13.931 34.531-29.837 33.234-55.776-.183-3.687-.405-6.943-.705-7.445-1.231-2.066-14.084 11.116-15.411 12.908-10.034 13.552-55.068 24.463-64.388-11.257-6.707-25.698 17.838-41.125 41.551-37.74 4.987.712 14.004 5.343 21.018 11.604 6.585 5.881 9.839 12.62 15.831 12.894 9.14.422-5.808-21.534-11.267-27.334-23.365-24.819-17.647-66.631 19.063-66.631 35.559 0 40.043 36.252 17.26 65.197-4.582 5.822-18.424 22.924-11.336 28.236 1.701 1.277 6.857-1.498 12.016-7.074 9.186-9.928 22.711-18.547 36.738-18.547 15.283 0 29.086 10.061 31.211 25.692 3.201 23.557-10.34 38.048-33.164 39.412-23.225 1.39-40.027-27.367-46.209-27.367-1.146 0-1.617 3.256-1.771 6.855-1.303 30.291 6.138 41.696 31.782 57.169zM83.257 178.59l-35.734-.355c12.91-6.27 16.353-13.431 15.741-25.106-.088-1.658-.193-3.123-.334-3.348-.584-.932-6.67 5.003-7.299 5.808-4.752 6.102-26.08 11.012-30.496-5.065-3.175-11.568 8.45-18.511 19.681-16.986 2.36.319 6.631 2.405 9.953 5.223 3.119 2.645 4.66 5.678 7.497 5.802 4.329.19-2.75-9.692-5.335-12.301-11.065-11.172-8.358-29.991 9.029-29.991 16.839 0 18.963 16.317 8.174 29.344-2.17 2.62-8.726 10.317-5.371 12.71.806.574 3.249-.674 5.692-3.184 4.349-4.469 10.755-8.349 17.397-8.349 7.238 0 13.775 4.529 14.782 11.562 1.516 10.604-4.897 17.127-15.706 17.739-11 .627-18.957-12.315-21.885-12.315-.543 0-.766 1.465-.839 3.083-.618 13.634 2.908 18.767 15.053 25.729z"/><g><path d="M69.227 17.518h14.749v47.575c0 6.211-.546 11.006-1.603 14.348-1.432 4.374-4.024 7.892-7.792 10.534-3.767 2.657-8.729 3.969-14.884 3.969-7.229 0-12.786-2.063-16.69-6.228-3.888-4.147-5.867-10.235-5.882-18.267l13.929-1.644c.17 4.304.784 7.35 1.841 9.131 1.603 2.696 4.041 4.043 7.297 4.043 3.292 0 5.626-.963 6.991-2.906 1.363-1.923 2.045-5.932 2.045-12.019V17.518h-.001z"/></g></svg>