<svg xmlns="http://www.w3.org/2000/svg" width="300" height="412"><path fill="#FFF" d="M19.408 2.471h261.186c9.311 0 16.926 7.587 16.926 16.861v373.337c0 9.275-7.615 16.862-16.926 16.862H19.408c-9.312 0-16.929-7.587-16.929-16.862V19.332c0-9.274 7.616-16.861 16.929-16.861z"/><path fill="#C6C6C6" d="M280.594 412H19.408C8.706 412 0 403.328 0 392.669V19.332C0 8.674 8.706.002 19.408.002h261.186c10.701 0 19.404 8.672 19.404 19.33v373.337c0 10.659-8.703 19.331-19.404 19.331zM19.408 4.94c-7.968 0-14.45 6.457-14.45 14.392v373.337c0 7.937 6.482 14.394 14.45 14.394h261.186c7.967 0 14.447-6.457 14.447-14.394V19.332c0-7.936-6.48-14.392-14.447-14.392H19.408z"/><path fill-rule="evenodd" clip-rule="evenodd" fill="#E30613" d="M152.43 205.854c23.061 29.566 51.256 56.674 82.334 82.4-30.229 26.656-60.197 53.396-82.334 82.635-30.71-36.594-59.262-60.452-84.036-82.635 24.334-21.35 53.255-48.003 84.036-82.4z"/><path fill="#E30613" d="M66.869 17.52h14.749v47.574c0 6.211-.547 11.006-1.604 14.348-1.431 4.375-4.022 7.892-7.79 10.535-3.768 2.656-8.731 3.969-14.886 3.969-7.228 0-12.784-2.063-16.691-6.228-3.886-4.147-5.865-10.235-5.879-18.268l13.928-1.644c.169 4.304.785 7.349 1.842 9.131 1.602 2.696 4.04 4.042 7.297 4.042 3.288 0 5.624-.962 6.99-2.905 1.361-1.923 2.044-5.932 2.044-12.019V17.52z"/><g><path fill-rule="evenodd" clip-rule="evenodd" fill="#E30613" d="M62.517 102.278c9.956 12.762 22.125 24.465 35.54 35.567-13.046 11.508-25.984 23.05-35.54 35.669-13.256-15.792-25.582-26.093-36.274-35.669 10.506-9.217 22.99-20.719 36.274-35.567z"/></g></svg>