<svg xmlns="http://www.w3.org/2000/svg" width="300" height="412"><path fill="#FFF" d="M19.409 2.476h261.183c9.309 0 16.926 7.587 16.926 16.861V392.67c0 9.275-7.617 16.861-16.926 16.861H19.409c-9.311 0-16.93-7.586-16.93-16.861V19.337c0-9.275 7.619-16.861 16.93-16.861z"/><path fill="#C6C6C6" d="M280.592 412H19.409C8.707 412 0 403.329 0 392.67V19.337C0 8.678 8.707.007 19.409.007h261.183c10.701 0 19.406 8.671 19.406 19.33V392.67c0 10.659-8.705 19.33-19.406 19.33zM19.409 4.945c-7.968 0-14.451 6.457-14.451 14.392V392.67c0 7.937 6.483 14.393 14.451 14.393h261.183c7.967 0 14.447-6.456 14.447-14.393V19.337c0-7.936-6.48-14.392-14.447-14.392H19.409z"/><path fill-rule="evenodd" clip-rule="evenodd" d="M150.024 324.173c.079-3.035-.408-3.42-2.483-2.595l-16.675 13.814c-33.679 26.972-84.185-12.82-47.077-56.202 26.615-25.102 51.216-48.793 69.97-73.333 18.514 22.468 39.074 45.375 65.381 70.07 18.756 18.077 23.408 37.37 9.801 57.388-26.07 20.015-48.807 9.87-66.02-7.565-2.324-2.356-5.539-7.839-5.695-1.11 2.895 27.324 11.604 36.531 35.586 47.89l-76.965-.155c24.828-12.077 32.805-20.963 34.177-48.202z"/><path d="M67.291 17.524H82.04v47.575c0 6.21-.547 11.005-1.604 14.348-1.431 4.373-4.022 7.891-7.79 10.533-3.768 2.658-8.731 3.97-14.883 3.97-7.231 0-12.787-2.063-16.69-6.229-3.89-4.147-5.869-10.234-5.882-18.267l13.927-1.644c.17 4.303.785 7.35 1.843 9.131 1.602 2.696 4.04 4.042 7.297 4.042 3.289 0 5.624-.962 6.99-2.905 1.361-1.923 2.044-5.932 2.044-12.019V17.524h-.001z"/><g><path fill-rule="evenodd" clip-rule="evenodd" d="M60.821 155.886c.037-1.375-.184-1.551-1.125-1.177l-7.555 6.26C36.881 173.19 14 155.16 30.812 135.504c12.059-11.372 23.203-22.106 31.702-33.225 8.388 10.181 17.706 20.56 29.624 31.749 8.498 8.19 10.604 16.928 4.438 26-11.812 9.069-22.111 4.473-29.91-3.428-1.054-1.066-2.512-3.55-2.583-.505 1.312 12.381 5.258 16.554 16.124 21.701l-34.87-.071c11.246-5.472 14.864-9.498 15.484-21.839z"/></g></svg>