<svg xmlns="http://www.w3.org/2000/svg" width="300" height="412"><path fill="#FFF" d="M19.407 2.472h261.187c9.311 0 16.928 7.587 16.928 16.861v373.339c0 9.272-7.617 16.859-16.928 16.859H19.407c-9.311 0-16.928-7.587-16.928-16.859V19.333c0-9.274 7.617-16.861 16.928-16.861z"/><path fill="#C6C6C6" d="M280.594 412H19.407C8.706 412 0 403.33 0 392.672V19.333C0 8.675 8.706.003 19.407.003h261.187C291.295.003 300 8.675 300 19.333v373.339C300 403.33 291.295 412 280.594 412zM19.407 4.941c-7.968 0-14.45 6.457-14.45 14.392v373.339c0 7.935 6.482 14.391 14.45 14.391h261.187c7.967 0 14.449-6.456 14.449-14.391V19.333c0-7.936-6.482-14.392-14.449-14.392H19.407z"/><path fill-rule="evenodd" clip-rule="evenodd" d="M191.523 376.145l-75.453-.797c27.259-13.931 34.531-29.838 33.234-55.776-.183-3.688-.405-6.942-.705-7.445-1.231-2.066-14.084 11.116-15.411 12.909-10.034 13.553-55.068 24.461-64.388-11.258-6.707-25.698 17.838-41.125 41.551-37.74 4.987.712 14.004 5.343 21.018 11.604 6.585 5.882 9.839 12.621 15.831 12.895 9.14.42-5.808-21.535-11.267-27.333-23.365-24.821-17.647-66.633 19.063-66.633 35.559 0 40.043 36.253 17.26 65.199-4.582 5.82-18.424 22.923-11.336 28.237 1.701 1.275 6.857-1.499 12.016-7.076 9.186-9.927 22.711-18.546 36.738-18.546 15.283 0 29.086 10.059 31.211 25.691 3.201 23.556-10.34 38.049-33.164 39.413-23.225 1.389-40.027-27.368-46.209-27.368-1.146 0-1.617 3.257-1.771 6.855-1.303 30.289 6.138 41.696 31.782 57.169zM91.647 179.602l-35.734-.355c12.91-6.271 16.353-13.431 15.741-25.106-.088-1.661-.193-3.126-.334-3.352-.583-.929-6.67 5.002-7.299 5.81-4.752 6.099-26.08 11.012-30.494-5.065-3.175-11.567 8.448-18.51 19.679-16.986 2.36.32 6.631 2.402 9.953 5.221 3.118 2.648 4.66 5.681 7.497 5.806 4.329.189-2.75-9.693-5.335-12.305-11.064-11.17-8.358-29.988 9.029-29.988 16.839 0 18.963 16.317 8.174 29.345-2.17 2.619-8.726 10.316-5.371 12.707.807.577 3.249-.674 5.692-3.185 4.349-4.466 10.755-8.348 17.398-8.348 7.238 0 13.774 4.528 14.781 11.564 1.516 10.601-4.896 17.126-15.707 17.74-10.998.623-18.957-12.316-21.883-12.316-.545 0-.767 1.465-.839 3.083-.617 13.634 2.908 18.767 15.052 25.73z"/><g><path d="M40.333 92.723V17.007h15.61v33.619l31.543-33.619h20.993L79.365 46.5l30.697 46.223H89.863L68.617 57.184 55.943 69.842v22.881h-15.61z"/></g></svg>