<svg xmlns="http://www.w3.org/2000/svg" width="300" height="412"><path fill="#FFF" d="M19.409 2.478h261.183c9.309 0 16.926 7.587 16.926 16.861v373.333c0 9.272-7.617 16.859-16.926 16.859H19.409c-9.311 0-16.93-7.587-16.93-16.859V19.339c0-9.275 7.619-16.861 16.93-16.861z"/><path fill="#C6C6C6" d="M280.592 412H19.409C8.707 412 0 403.33 0 392.672V19.339C0 8.68 8.707.009 19.409.009h261.183c10.701 0 19.406 8.671 19.406 19.33v373.333c0 10.658-8.705 19.328-19.406 19.328zM19.409 4.947c-7.968 0-14.451 6.457-14.451 14.392v373.333c0 7.935 6.483 14.391 14.451 14.391h261.183c7.967 0 14.447-6.456 14.447-14.391V19.339c0-7.936-6.48-14.392-14.447-14.392H19.409z"/><path fill-rule="evenodd" clip-rule="evenodd" d="M150.024 324.889c.079-3.034-.408-3.42-2.483-2.595l-16.675 13.815c-33.679 26.971-84.185-12.821-47.077-56.202 26.615-25.103 51.216-48.793 69.97-73.334 18.514 22.469 39.074 45.375 65.381 70.071 18.756 18.077 23.408 37.37 9.801 57.387-26.07 20.015-48.807 9.87-66.02-7.566-2.324-2.354-5.539-7.835-5.695-1.109 2.895 27.324 11.604 36.532 35.586 47.891l-76.965-.155c24.828-12.077 32.805-20.964 34.177-48.203z"/><path d="M40.83 92.727V17.012h15.609v33.619l31.543-33.619h20.995L79.863 46.505l30.695 46.222H90.357L69.114 57.188 56.439 69.847v22.88H40.83z"/><g><path fill-rule="evenodd" clip-rule="evenodd" d="M70.145 156.235c.034-1.321-.175-1.488-1.08-1.129l-7.263 6.017c-14.667 11.745-36.66-5.585-20.501-24.476 11.592-10.93 22.305-21.249 30.472-31.932 8.062 9.783 17.014 19.757 28.472 30.513 8.165 7.871 10.191 16.273 4.266 24.989-11.353 8.715-21.255 4.297-28.75-3.295-1.012-1.025-2.413-3.413-2.478-.482 1.259 11.899 5.051 15.91 15.495 20.853l-33.516-.067c10.813-5.259 14.288-9.13 14.883-20.991z"/></g></svg>