<svg xmlns="http://www.w3.org/2000/svg" width="300" height="412"><path fill="#FFF" d="M19.407 2.473h261.185c9.312 0 16.928 7.586 16.928 16.861v373.338c0 9.273-7.615 16.859-16.928 16.859H19.407c-9.312 0-16.928-7.586-16.928-16.859V19.334c0-9.275 7.617-16.861 16.928-16.861z"/><path fill="#C6C6C6" d="M280.592 412H19.407C8.706 412 0 403.33 0 392.672V19.334C0 8.676 8.706.004 19.407.004h261.185c10.701 0 19.406 8.672 19.406 19.33v373.338c0 10.658-8.705 19.328-19.406 19.328zM19.407 4.942c-7.968 0-14.45 6.457-14.45 14.392v373.338c0 7.935 6.482 14.391 14.45 14.391h261.185c7.969 0 14.449-6.456 14.449-14.391V19.334c0-7.936-6.48-14.392-14.449-14.392H19.407z"/><path fill-rule="evenodd" clip-rule="evenodd" d="M188.801 378.202l-75.453-.795c27.258-13.932 34.53-29.839 33.236-55.776-.185-3.688-.407-6.943-.706-7.445-1.23-2.068-14.083 11.116-15.412 12.907-10.033 13.554-55.066 24.463-64.387-11.256-6.708-25.7 17.838-41.126 41.551-37.741 4.986.712 14.004 5.343 21.017 11.604 6.585 5.882 9.84 12.621 15.832 12.896 9.139.416-5.808-21.535-11.267-27.334-23.363-24.82-17.647-66.633 19.064-66.633 35.557 0 40.043 36.253 17.26 65.199-4.582 5.82-18.424 22.922-11.338 28.236 1.703 1.276 6.859-1.5 12.018-7.076 9.186-9.928 22.711-18.547 36.736-18.547 15.283 0 29.09 10.06 31.213 25.693 3.201 23.556-10.34 38.048-33.164 39.412-23.225 1.389-40.025-27.367-46.209-27.367-1.148 0-1.617 3.255-1.771 6.854-1.306 30.293 6.137 41.697 31.78 57.169zM86.898 180.186l-35.734-.356c12.91-6.27 16.353-13.43 15.741-25.105-.088-1.661-.193-3.126-.334-3.352-.583-.929-6.67 5.003-7.298 5.812-4.752 6.098-26.081 11.011-30.494-5.066-3.177-11.568 8.448-18.51 19.679-16.986 2.36.321 6.631 2.404 9.953 5.222 3.118 2.648 4.66 5.68 7.497 5.805 4.329.188-2.75-9.693-5.335-12.302-11.066-11.172-8.359-29.99 9.029-29.99 16.838 0 18.963 16.315 8.174 29.342-2.17 2.622-8.726 10.317-5.371 12.709.807.577 3.249-.675 5.692-3.185 4.349-4.467 10.755-8.346 17.399-8.346 7.238 0 13.774 4.529 14.781 11.561 1.517 10.603-4.897 17.128-15.707 17.74-10.998.624-18.957-12.316-21.883-12.316-.545 0-.767 1.466-.839 3.084-.619 13.634 2.905 18.767 15.05 25.729z"/><g><path d="M99.976 83.347a48.717 48.717 0 0 0 12.035 6.271l-5.53 10.587a34.724 34.724 0 0 1-6.661-2.781c-.486-.24-3.816-2.434-10.006-6.582-4.891 2.126-10.286 3.179-16.216 3.179-11.446 0-20.412-3.351-26.898-10.071-6.487-6.703-9.73-16.133-9.73-28.276 0-12.124 3.243-21.537 9.747-28.274 6.503-6.72 15.331-10.087 26.481-10.087 11.03 0 19.789 3.368 26.258 10.087 6.469 6.737 9.712 16.15 9.712 28.274 0 6.41-.901 12.039-2.688 16.895-1.37 3.713-3.539 7.304-6.504 10.778zm-12.105-8.448c1.943-2.262 3.382-4.992 4.353-8.202.955-3.196 1.439-6.875 1.439-11.022 0-8.583-1.89-14.975-5.688-19.208-3.797-4.229-8.758-6.355-14.88-6.355-6.139 0-11.1 2.126-14.916 6.375-3.816 4.25-5.722 10.638-5.722 19.188 0 8.653 1.906 15.15 5.722 19.45 3.815 4.3 8.619 6.459 14.448 6.459 2.167 0 4.231-.36 6.155-1.069-3.051-1.987-6.155-3.541-9.295-4.665l4.215-8.548c4.942 1.691 9.677 4.212 14.169 7.597z"/></g></svg>