<svg xmlns="http://www.w3.org/2000/svg" width="300" height="412"><path fill="#FFF" d="M19.409 2.474h261.185c9.311 0 16.928 7.587 16.928 16.861v373.337c0 9.272-7.617 16.859-16.928 16.859H19.409c-9.311 0-16.93-7.587-16.93-16.859V19.335c0-9.274 7.619-16.861 16.93-16.861z"/><path fill="#C6C6C6" d="M280.594 412H19.409C8.707 412 0 403.33 0 392.672V19.335C0 8.677 8.707.005 19.409.005h261.185C291.295.005 300 8.677 300 19.335v373.337C300 403.33 291.295 412 280.594 412zM19.409 4.943c-7.968 0-14.451 6.457-14.451 14.392v373.337c0 7.935 6.483 14.391 14.451 14.391h261.185c7.967 0 14.449-6.456 14.449-14.391V19.335c0-7.936-6.482-14.392-14.449-14.392H19.409z"/><path fill-rule="evenodd" clip-rule="evenodd" fill="#E30613" d="M150.923 206.741c23.061 29.566 51.256 56.674 82.333 82.4-30.225 26.656-60.197 53.396-82.333 82.636-30.708-36.594-59.262-60.452-84.035-82.636 24.334-21.349 53.255-48.003 84.035-82.4z"/><path fill="#E30613" d="M97.618 83.348a48.747 48.747 0 0 0 12.037 6.271l-5.531 10.587a34.664 34.664 0 0 1-6.662-2.78c-.484-.24-3.815-2.434-10.006-6.582-4.89 2.126-10.285 3.179-16.215 3.179-11.447 0-20.411-3.351-26.897-10.071-6.489-6.703-9.731-16.133-9.731-28.276 0-12.124 3.243-21.537 9.749-28.274 6.503-6.719 15.33-10.087 26.48-10.087 11.03 0 19.79 3.369 26.259 10.087 6.468 6.737 9.712 16.15 9.712 28.274 0 6.41-.901 12.039-2.688 16.896-1.374 3.712-3.542 7.303-6.507 10.776zM85.513 74.9c1.942-2.262 3.382-4.992 4.354-8.202.953-3.196 1.437-6.875 1.437-11.022 0-8.583-1.887-14.975-5.687-19.208-3.798-4.229-8.759-6.355-14.88-6.355-6.14 0-11.101 2.126-14.917 6.375-3.815 4.25-5.724 10.638-5.724 19.188 0 8.653 1.909 15.15 5.724 19.45 3.816 4.3 8.621 6.46 14.449 6.46 2.166 0 4.229-.361 6.155-1.07-3.05-1.987-6.155-3.541-9.296-4.664l4.216-8.549c4.942 1.691 9.676 4.212 14.169 7.597z"/><g><path fill-rule="evenodd" clip-rule="evenodd" fill="#E30613" d="M68.048 103.871c9.834 12.609 21.859 24.167 35.109 35.136-12.887 11.368-25.669 22.771-35.109 35.239-13.094-15.604-25.27-25.777-35.832-35.239 10.375-9.102 22.71-20.468 35.832-35.136z"/></g></svg>