<svg xmlns="http://www.w3.org/2000/svg" width="300" height="412"><path fill="#FFF" d="M19.409 2.474h261.183c9.312 0 16.928 7.587 16.928 16.861v373.337c0 9.272-7.615 16.859-16.928 16.859H19.409c-9.313 0-16.93-7.587-16.93-16.859V19.335c0-9.274 7.616-16.861 16.93-16.861z"/><path fill="#C6C6C6" d="M280.592 412H19.409C8.707 412 0 403.33 0 392.672V19.335C0 8.677 8.707.005 19.409.005h261.183c10.701 0 19.406 8.672 19.406 19.33v373.337c0 10.658-8.705 19.328-19.406 19.328zM19.409 4.943c-7.968 0-14.451 6.457-14.451 14.392v373.337c0 7.935 6.483 14.391 14.451 14.391h261.183c7.969 0 14.449-6.456 14.449-14.391V19.335c0-7.936-6.48-14.392-14.449-14.392H19.409z"/><path fill-rule="evenodd" clip-rule="evenodd" fill="#E30613" d="M153.316 372.251l-28.708-33.733c-19.588-23.02-65.15-63.563-58.21-99.545 6.732-34.908 66.741-39.787 79.128-13.165 1.885 4.049 2.493 7.252 4.057 8.845.811.879 1.854 1.319 3.071 1.319 1.678 0 2.953-.44 3.764-1.319 1.682-1.703 1.891-5.411 4.402-8.845 30.506-41.679 100.682-.483 73.529 48.009-5.412 9.67-12.973 17.784-26.898 34.396-13.932 16.623-22.115 27.251-25.605 31.261l-28.53 32.777z"/><path fill="#E30613" d="M99.211 83.348a48.71 48.71 0 0 0 12.034 6.271l-5.531 10.587a34.534 34.534 0 0 1-6.659-2.78c-.488-.24-3.816-2.434-10.007-6.582-4.89 2.126-10.284 3.179-16.215 3.179-11.447 0-20.414-3.351-26.899-10.071-6.487-6.703-9.729-16.133-9.729-28.276 0-12.124 3.243-21.537 9.746-28.274 6.503-6.719 15.331-10.087 26.483-10.087 11.031 0 19.787 3.369 26.256 10.087 6.469 6.737 9.712 16.15 9.712 28.274 0 6.41-.901 12.039-2.687 16.896-1.37 3.712-3.539 7.303-6.504 10.776zM87.107 74.9c1.941-2.262 3.381-4.992 4.351-8.202.953-3.196 1.441-6.875 1.441-11.022 0-8.583-1.891-14.975-5.69-19.208-3.799-4.229-8.757-6.355-14.88-6.355-6.138 0-11.099 2.126-14.915 6.375-3.815 4.25-5.723 10.638-5.723 19.188 0 8.653 1.908 15.15 5.723 19.45 3.816 4.3 8.618 6.46 14.447 6.46 2.168 0 4.232-.361 6.158-1.07-3.053-1.987-6.158-3.541-9.296-4.664l4.212-8.549c4.944 1.691 9.678 4.212 14.172 7.597z"/><g><path fill-rule="evenodd" clip-rule="evenodd" fill="#E30613" d="M71.207 174.743l-12.871-14.614c-8.783-9.97-29.207-27.534-26.098-43.122 3.019-15.119 29.918-17.233 35.476-5.7.844 1.753 1.116 3.14 1.816 3.831.363.381.831.57 1.378.57.751 0 1.324-.188 1.687-.57.754-.737.847-2.346 1.973-3.831 13.678-18.055 45.136-.212 32.966 20.797-2.43 4.188-5.817 7.703-12.06 14.899-6.248 7.202-9.916 11.808-11.478 13.541l-12.789 14.199z"/></g></svg>