<svg xmlns="http://www.w3.org/2000/svg" width="300" height="412"><path fill="#FFF" d="M19.406 2.479h261.182c9.311 0 16.93 7.586 16.93 16.86v373.333c0 9.272-7.619 16.859-16.93 16.859H19.406c-9.31 0-16.927-7.587-16.927-16.859V19.339c0-9.275 7.617-16.86 16.927-16.86z"/><path fill="#C6C6C6" d="M280.588 412H19.406C8.706 412 0 403.33 0 392.672V19.339C0 8.681 8.706.01 19.406.01h261.182c10.703 0 19.41 8.671 19.41 19.329v373.333c0 10.658-8.707 19.328-19.41 19.328zM19.406 4.947c-7.967 0-14.448 6.457-14.448 14.392v373.333c0 7.935 6.481 14.391 14.448 14.391h261.182c7.969 0 14.451-6.456 14.451-14.391V19.339c0-7.935-6.482-14.392-14.451-14.392H19.406z"/><path fill-rule="evenodd" clip-rule="evenodd" d="M148.513 326.95c.08-3.038-.406-3.422-2.481-2.597l-16.674 13.814c-33.683 26.971-84.188-12.822-47.078-56.203 26.617-25.103 51.213-48.793 69.969-73.333 18.514 22.469 39.078 45.374 65.385 70.07 18.754 18.078 23.406 37.37 9.797 57.388-26.07 20.015-48.807 9.87-66.02-7.567-2.322-2.354-5.539-7.834-5.693-1.109 2.895 27.325 11.604 36.531 35.586 47.89l-76.964-.154c24.825-12.077 32.804-20.961 34.173-48.199z"/><path d="M98.037 83.351a48.656 48.656 0 0 0 12.036 6.271l-5.53 10.588a34.706 34.706 0 0 1-6.662-2.781c-.485-.24-3.816-2.433-10.007-6.581-4.89 2.125-10.284 3.179-16.215 3.179-11.443 0-20.41-3.351-26.896-10.071-6.486-6.703-9.729-16.133-9.729-28.276 0-12.124 3.243-21.536 9.746-28.273 6.503-6.719 15.331-10.087 26.483-10.087 11.027 0 19.787 3.369 26.255 10.087 6.469 6.737 9.712 16.149 9.712 28.273 0 6.41-.901 12.04-2.687 16.896-1.372 3.71-3.541 7.301-6.506 10.775zm-12.105-8.448c1.941-2.261 3.382-4.992 4.354-8.201.953-3.196 1.437-6.875 1.437-11.023 0-8.583-1.888-14.975-5.686-19.207-3.799-4.229-8.76-6.355-14.88-6.355-6.14 0-11.101 2.125-14.914 6.375-3.815 4.25-5.724 10.639-5.724 19.188 0 8.654 1.908 15.15 5.724 19.451 3.813 4.3 8.618 6.459 14.446 6.459 2.166 0 4.229-.361 6.157-1.069-3.053-1.988-6.157-3.542-9.297-4.665l4.215-8.549c4.942 1.69 9.678 4.211 14.168 7.596z"/><g><path fill-rule="evenodd" clip-rule="evenodd" d="M67.954 157.48c.037-1.378-.184-1.55-1.123-1.177l-7.555 6.26c-15.259 12.22-38.145-5.811-21.333-25.464 12.063-11.374 23.207-22.107 31.705-33.225 8.388 10.178 17.704 20.557 29.623 31.746 8.496 8.191 10.605 16.932 4.439 26.003-11.812 9.066-22.114 4.473-29.913-3.431-1.051-1.064-2.509-3.548-2.579-.502 1.312 12.381 5.255 16.553 16.124 21.697l-34.872-.068c11.249-5.471 14.863-9.497 15.484-21.839z"/></g></svg>