<svg xmlns="http://www.w3.org/2000/svg" width="300" height="412"><path fill="#FFF" d="M19.407 2.471h261.185c9.312 0 16.928 7.587 16.928 16.86v373.338c0 9.276-7.615 16.862-16.928 16.862H19.407c-9.312 0-16.928-7.586-16.928-16.862V19.331c0-9.273 7.617-16.86 16.928-16.86z"/><path fill="#C6C6C6" d="M280.592 412H19.407C8.706 412 0 403.328 0 392.669V19.331C0 8.674 8.706.002 19.407.002h261.185c10.701 0 19.406 8.672 19.406 19.329v373.338c.001 10.659-8.705 19.331-19.406 19.331zM19.407 4.94c-7.968 0-14.45 6.456-14.45 14.391v373.338c0 7.937 6.482 14.394 14.45 14.394h261.185c7.969 0 14.449-6.457 14.449-14.394V19.331c0-7.935-6.48-14.391-14.449-14.391H19.407z"/><path d="M189.104 375.104l-75.452-.797c27.258-13.933 34.53-29.842 33.234-55.779-.182-3.687-.405-6.941-.704-7.442-1.232-2.067-14.085 11.115-15.412 12.908-10.034 13.552-55.068 24.463-64.388-11.255-6.707-25.699 17.838-41.127 41.552-37.741 4.986.711 14.004 5.341 21.018 11.601 6.585 5.885 9.839 12.623 15.831 12.898 9.139.418-5.807-21.537-11.267-27.335-23.365-24.819-17.647-66.631 19.063-66.631 35.56 0 40.044 36.25 17.262 65.196-4.584 5.82-18.425 22.924-11.339 28.236 1.702 1.277 6.857-1.498 12.018-7.076 9.185-9.929 22.711-18.547 36.737-18.547 15.282 0 29.086 10.062 31.21 25.69 3.203 23.559-10.339 38.051-33.164 39.415-23.222 1.387-40.025-27.366-46.207-27.366-1.146 0-1.615 3.255-1.773 6.853-1.303 30.293 6.136 41.697 31.781 57.172z"/><g><path d="M78.741 177.289l-35.734-.358c12.909-6.27 16.353-13.43 15.74-25.103-.088-1.661-.193-3.125-.334-3.351-.583-.931-6.671 5.002-7.298 5.809-4.753 6.101-26.081 11.01-30.495-5.067-3.176-11.563 8.448-18.509 19.68-16.984 2.36.322 6.63 2.404 9.953 5.222 3.118 2.646 4.661 5.681 7.497 5.804 4.329.188-2.75-9.693-5.335-12.304-11.064-11.168-8.356-29.989 9.029-29.989 16.839 0 18.963 16.315 8.174 29.344-2.17 2.62-8.726 10.316-5.371 12.709.806.573 3.249-.675 5.692-3.185 4.349-4.469 10.755-8.349 17.399-8.349 7.238 0 13.774 4.529 14.78 11.564 1.517 10.603-4.896 17.125-15.706 17.74-10.998.624-18.957-12.318-21.883-12.318-.543 0-.767 1.465-.839 3.084-.618 13.635 2.907 18.768 15.051 25.732z"/></g><g><path d="M49.796 89.958H35.411V43.963h-17.83V33.124c10.029.203 19.249-3.241 20.769-14.082h11.447l-.001 70.916zM86.369 17.624c14.184 0 26.137 8.915 26.137 36.572 0 28.266-11.954 37.18-26.137 37.18-13.98 0-25.935-8.915-25.935-37.18.001-27.657 11.955-36.572 25.935-36.572zm0 61.899c11.752 0 11.752-17.323 11.752-25.327 0-7.396 0-24.719-11.752-24.719-11.549 0-11.549 17.323-11.549 24.719 0 8.004 0 25.327 11.549 25.327z"/></g></svg>