<svg xmlns="http://www.w3.org/2000/svg" width="300" height="412"><path fill="#FFF" d="M19.408 2.475h261.186c9.311 0 16.928 7.587 16.928 16.861v373.336c0 9.273-7.617 16.859-16.928 16.859H19.408c-9.312 0-16.929-7.586-16.929-16.859V19.336c0-9.274 7.616-16.861 16.929-16.861z"/><path fill="#C6C6C6" d="M280.593 412H19.408C8.706 412 0 403.33 0 392.672V19.336C0 8.677 8.706.006 19.408.006h261.186c10.701 0 19.405 8.671 19.405 19.33v373.336c0 10.658-8.705 19.328-19.406 19.328zM19.408 4.944c-7.968 0-14.45 6.457-14.45 14.392v373.336c0 7.936 6.482 14.391 14.45 14.391h261.186c7.967 0 14.448-6.455 14.448-14.391V19.336c0-7.936-6.481-14.392-14.448-14.392H19.408z"/><path fill="#E30613" d="M153.341 204.819c23.062 29.566 51.257 56.673 82.332 82.397-30.225 26.659-60.196 53.396-82.332 82.64-30.708-36.598-59.262-60.453-84.035-82.64 24.334-21.348 53.255-48.001 84.035-82.397zM68.453 101.542c10.494 13.459 23.328 25.794 37.471 37.503-13.758 12.132-27.399 24.301-37.471 37.607-13.979-16.655-26.973-27.511-38.247-37.607 11.075-9.718 24.237-21.847 38.247-37.503z"/><g fill="#E30613"><path d="M49.796 89.958H35.411V43.963h-17.83V33.124c10.029.203 19.249-3.241 20.769-14.082h11.447l-.001 70.916zM86.369 17.624c14.184 0 26.137 8.915 26.137 36.572 0 28.266-11.954 37.18-26.137 37.18-13.98 0-25.935-8.915-25.935-37.18.001-27.657 11.955-36.572 25.935-36.572zm0 61.899c11.752 0 11.752-17.323 11.752-25.327 0-7.396 0-24.719-11.752-24.719-11.549 0-11.549 17.323-11.549 24.719 0 8.004 0 25.327 11.549 25.327z"/></g></svg>