<svg xmlns="http://www.w3.org/2000/svg" width="300" height="412"><path fill="#FFF" d="M19.409 2.475h261.185c9.311 0 16.928 7.586 16.928 16.859v373.335c0 9.276-7.617 16.862-16.928 16.862H19.409c-9.311 0-16.93-7.586-16.93-16.862V19.334c0-9.273 7.619-16.859 16.93-16.859z"/><path fill="#C6C6C6" d="M280.594 412H19.409C8.707 412 0 403.328 0 392.669V19.334C0 8.677 8.707.006 19.409.006h261.185C291.295.006 300 8.677 300 19.334v373.335c0 10.659-8.705 19.331-19.406 19.331zM19.409 4.944c-7.968 0-14.451 6.456-14.451 14.39v373.335c0 7.937 6.483 14.394 14.451 14.394h261.185c7.967 0 14.449-6.457 14.449-14.394V19.334c0-7.935-6.482-14.39-14.449-14.39H19.409z"/><path fill-rule="evenodd" clip-rule="evenodd" fill="#E30613" d="M148.795 208.309c23.061 29.568 51.256 56.675 82.334 82.399-30.227 26.657-60.197 53.397-82.334 82.635-30.709-36.593-59.262-60.449-84.035-82.635 24.334-21.35 53.255-48.002 84.035-82.399zM59.974 105.374c10.495 13.456 23.328 25.793 37.471 37.499-13.754 12.132-27.396 24.302-37.471 37.612-13.975-16.655-26.97-27.514-38.247-37.612 11.076-9.715 24.238-21.846 38.247-37.499z"/><g><path fill="#E30613" d="M81.655 80.363v13.183H33.974c.527-4.981 2.066-9.701 4.657-14.165 2.58-4.464 7.686-10.377 15.283-17.75 6.149-5.947 9.899-9.997 11.286-12.116 1.868-2.931 2.809-5.826 2.809-8.687 0-3.154-.811-5.582-2.444-7.29-1.639-1.705-3.883-2.55-6.758-2.55-2.844 0-5.088.895-6.775 2.671-1.667 1.792-2.643 4.757-2.906 8.894l-13.55-1.415c.811-7.807 3.34-13.407 7.6-16.819 4.263-3.396 9.584-5.103 15.977-5.103 7.004 0 12.507 1.983 16.507 5.911 3.997 3.947 5.996 8.842 5.996 14.702a26.7 26.7 0 0 1-1.718 9.511c-1.14 3.018-2.957 6.171-5.438 9.463-1.65 2.188-4.624 5.342-8.903 9.445-4.295 4.103-7.022 6.841-8.162 8.185-1.14 1.344-2.081 2.654-2.792 3.93h27.012z"/></g></svg>