<svg xmlns="http://www.w3.org/2000/svg" width="300" height="412"><path fill="#FFF" d="M19.409 2.473h261.185c9.311 0 16.928 7.587 16.928 16.86v373.336c0 9.276-7.617 16.862-16.928 16.862H19.409c-9.311 0-16.93-7.586-16.93-16.862V19.333c0-9.273 7.619-16.86 16.93-16.86z"/><path fill="#C6C6C6" d="M280.594 412H19.409C8.707 412 0 403.328 0 392.669V19.333C0 8.675 8.707.004 19.409.004h261.185C291.295.004 300 8.675 300 19.333v373.336c0 10.659-8.705 19.331-19.406 19.331zM19.409 4.942c-7.968 0-14.451 6.456-14.451 14.391v373.336c0 7.937 6.483 14.394 14.451 14.394h261.185c7.967 0 14.449-6.457 14.449-14.394V19.333c0-7.935-6.482-14.391-14.449-14.391H19.409z"/><path fill="#E30613" d="M34.221 74.238l13.933-1.65c.456 3.49 1.647 6.152 3.609 7.993 1.941 1.855 4.306 2.783 7.069 2.783 2.977 0 5.479-1.118 7.51-3.334 2.029-2.217 3.047-5.191 3.047-8.956 0-3.558-.965-6.375-2.926-8.457-1.941-2.095-4.323-3.128-7.124-3.128-1.837 0-4.042.346-6.616 1.05l1.594-11.515c3.903.085 6.88-.74 8.927-2.494 2.049-1.77 3.081-4.107 3.081-7.03 0-2.492-.754-4.47-2.256-5.946-1.509-1.479-3.522-2.218-6.004-2.218-2.469 0-4.569.842-6.302 2.525-1.752 1.668-2.821 4.126-3.187 7.341l-13.29-2.201c.931-4.468 2.313-8.045 4.185-10.708 1.856-2.665 4.465-4.763 7.79-6.291 3.344-1.531 7.072-2.304 11.206-2.304 7.087 0 12.759 2.218 17.031 6.652 3.518 3.626 5.287 7.716 5.287 12.289 0 6.481-3.606 11.653-10.82 15.504 4.309.91 7.739 2.939 10.33 6.102 2.575 3.145 3.867 6.961 3.867 11.429 0 6.481-2.416 11.999-7.229 16.57-4.813 4.555-10.818 6.841-17.995 6.841-6.809 0-12.445-1.925-16.927-5.759-4.483-3.846-7.074-8.867-7.79-15.088z"/><path fill-rule="evenodd" clip-rule="evenodd" fill="#E30613" d="M148.795 208.856c23.061 29.566 51.256 56.673 82.334 82.399-30.227 26.656-60.197 53.394-82.334 82.635-30.709-36.593-59.262-60.45-84.035-82.635 24.334-21.351 53.255-48.003 84.035-82.399z"/><g><path fill-rule="evenodd" clip-rule="evenodd" fill="#E30613" d="M59.974 105.127c10.495 13.457 23.328 25.794 37.471 37.501-13.754 12.134-27.396 24.303-37.471 37.609-13.975-16.654-26.97-27.512-38.247-37.609 11.076-9.715 24.238-21.846 38.247-37.501z"/></g></svg>