<svg xmlns="http://www.w3.org/2000/svg" width="300" height="412"><path fill="#FFF" d="M19.409 2.525h261.185c9.312 0 16.928 7.587 16.928 16.86v373.338c0 9.276-7.615 16.862-16.928 16.862H19.409c-9.312 0-16.928-7.586-16.928-16.862V19.386c0-9.274 7.617-16.861 16.928-16.861z"/><path fill="#C6C6C6" d="M280.594 412.055H19.409c-10.701 0-19.407-8.672-19.407-19.331V19.386C.002 8.729 8.708.057 19.409.057h261.185C291.295.057 300 8.729 300 19.386v373.338c0 10.659-8.705 19.331-19.406 19.331zM19.409 4.995c-7.968 0-14.45 6.456-14.45 14.391v373.338c0 7.937 6.482 14.394 14.45 14.394h261.185c7.969 0 14.449-6.457 14.449-14.394V19.386c0-7.935-6.48-14.391-14.449-14.391H19.409z"/><path fill-rule="evenodd" clip-rule="evenodd" d="M189.105 375.157l-75.451-.797c27.258-13.932 34.53-29.841 33.234-55.778-.182-3.687-.405-6.942-.704-7.443-1.232-2.067-14.085 11.115-15.412 12.908-10.034 13.552-55.068 24.463-64.388-11.255-6.707-25.699 17.838-41.127 41.552-37.741 4.986.711 14.004 5.341 21.018 11.601 6.585 5.884 9.839 12.623 15.831 12.898 9.139.418-5.807-21.537-11.267-27.335-23.365-24.819-17.647-66.631 19.064-66.631 35.559 0 40.043 36.25 17.262 65.197-4.584 5.82-18.426 22.923-11.34 28.236 1.703 1.277 6.857-1.498 12.018-7.076 9.184-9.929 22.711-18.547 36.738-18.547 15.281 0 29.086 10.062 31.209 25.69 3.203 23.559-10.338 38.051-33.164 39.415-23.221 1.387-40.025-27.366-46.207-27.366-1.146 0-1.615 3.255-1.773 6.852-1.304 30.293 6.136 41.699 31.78 57.172z"/><g><path fill-rule="evenodd" clip-rule="evenodd" d="M78.743 177.344l-35.734-.358c12.909-6.27 16.353-13.43 15.74-25.103-.088-1.661-.193-3.125-.334-3.351-.583-.931-6.671 5.002-7.298 5.809-4.753 6.101-26.081 11.01-30.495-5.067-3.176-11.564 8.448-18.509 19.68-16.984 2.36.322 6.63 2.404 9.953 5.222 3.118 2.646 4.661 5.681 7.497 5.804 4.329.188-2.75-9.693-5.335-12.304-11.064-11.168-8.356-29.989 9.029-29.989 16.839 0 18.963 16.315 8.174 29.344-2.17 2.62-8.726 10.316-5.371 12.709.806.573 3.249-.675 5.692-3.185 4.349-4.469 10.755-8.349 17.399-8.349 7.238 0 13.774 4.529 14.78 11.564 1.517 10.603-4.896 17.125-15.706 17.74-10.998.624-18.957-12.318-21.883-12.318-.543 0-.767 1.465-.839 3.084-.618 13.635 2.907 18.768 15.051 25.732z"/></g><g><path d="M63.576 91.285V76.51H32.647V64.181L65.44 17.527h12.155v46.601h9.377V76.51h-9.377v14.775H63.576zm0-27.157V39.022L46.211 64.128h17.365z"/></g></svg>