<svg xmlns="http://www.w3.org/2000/svg" width="300" height="412"><path fill="#FFF" d="M19.409 2.473h261.185c9.311 0 16.928 7.586 16.928 16.859v373.337c0 9.275-7.617 16.862-16.928 16.862H19.409c-9.311 0-16.93-7.587-16.93-16.862V19.332c0-9.273 7.619-16.859 16.93-16.859z"/><path fill="#C6C6C6" d="M280.594 412H19.409C8.707 412 0 403.328 0 392.669V19.332C0 8.675 8.707.004 19.409.004h261.185C291.295.004 300 8.675 300 19.332v373.337c0 10.659-8.705 19.331-19.406 19.331zM19.409 4.942c-7.968 0-14.451 6.456-14.451 14.39v373.337c0 7.937 6.483 14.394 14.451 14.394h261.185c7.967 0 14.449-6.457 14.449-14.394V19.332c0-7.935-6.482-14.39-14.449-14.39H19.409z"/><path fill="#E30613" d="M62.432 91.231V76.457H31.504v-12.33l32.793-46.654h12.156v46.601h9.377v12.383h-9.377v14.774H62.432zm0-27.157V38.969L45.069 64.074h17.363z"/><path fill-rule="evenodd" clip-rule="evenodd" fill="#E30613" d="M150.011 205.529c23.061 29.566 51.256 56.674 82.334 82.399-30.229 26.657-60.197 53.395-82.334 82.637-30.709-36.594-59.262-60.451-84.036-82.637 24.335-21.349 53.256-48.003 84.036-82.399z"/><g><path fill-rule="evenodd" clip-rule="evenodd" fill="#E30613" d="M59.974 100.974c10.495 13.456 23.328 25.792 37.471 37.501-13.754 12.132-27.396 24.302-37.471 37.609-13.975-16.655-26.97-27.512-38.247-37.609 11.076-9.716 24.238-21.845 38.247-37.501z"/></g></svg>