<svg xmlns="http://www.w3.org/2000/svg" width="300" height="412"><path fill="#FFF" d="M19.408 2.473h261.186c9.311 0 16.926 7.586 16.926 16.861v373.337c0 9.274-7.615 16.86-16.926 16.86H19.408c-9.312 0-16.929-7.586-16.929-16.86V19.334c0-9.275 7.616-16.861 16.929-16.861z"/><path fill="#C6C6C6" d="M280.594 412H19.408C8.706 412 0 403.329 0 392.671V19.334C0 8.676 8.706.004 19.408.004h261.186c10.701 0 19.404 8.672 19.404 19.33v373.337c0 10.658-8.703 19.329-19.404 19.329zM19.408 4.942c-7.968 0-14.45 6.457-14.45 14.392v373.337c0 7.936 6.482 14.392 14.45 14.392h261.186c7.967 0 14.447-6.456 14.447-14.392V19.334c0-7.936-6.48-14.392-14.447-14.392H19.408z"/><path fill="#E30613" d="M83.69 40.356l-14.168 1.526c-.337-2.845-1.244-4.943-2.701-6.313-1.458-1.352-3.359-2.029-5.69-2.029-3.075 0-5.688 1.354-7.841 4.075-2.131 2.705-3.463 8.342-4.034 16.91 3.663-4.198 8.179-6.296 13.599-6.296 6.118 0 11.343 2.272 15.7 6.816 4.354 4.526 6.543 10.389 6.543 17.57 0 7.63-2.294 13.735-6.881 18.349-4.569 4.594-10.472 6.901-17.655 6.901-7.697 0-14.044-2.913-19.005-8.758-4.958-5.844-7.447-15.417-7.447-28.738 0-13.648 2.577-23.482 7.75-29.517 5.174-6.036 11.893-9.053 20.162-9.053 5.794 0 10.593 1.595 14.398 4.751 3.803 3.175 6.221 7.771 7.27 13.806zM50.517 71.504c0 4.631 1.085 8.22 3.271 10.736 2.188 2.532 4.691 3.797 7.5 3.797 2.722 0 4.961-1.04 6.775-3.105 1.812-2.062 2.702-5.461 2.702-10.163 0-4.837-.958-8.394-2.914-10.648-1.939-2.254-4.375-3.381-7.291-3.381-2.806 0-5.191 1.075-7.129 3.225-1.952 2.152-2.914 5.342-2.914 9.539z"/><path fill-rule="evenodd" clip-rule="evenodd" fill="#E30613" d="M152.43 210.936c23.061 29.566 51.256 56.674 82.334 82.398-30.229 26.657-60.197 53.396-82.334 82.637-30.71-36.594-59.262-60.452-84.036-82.637 24.334-21.348 53.255-48.002 84.036-82.398z"/><g><path fill-rule="evenodd" clip-rule="evenodd" fill="#E30613" d="M62.392 106.479c10.494 13.458 23.328 25.792 37.471 37.501-13.755 12.133-27.396 24.302-37.471 37.609-13.976-16.654-26.97-27.513-38.247-37.609 11.076-9.715 24.238-21.846 38.247-37.501z"/></g></svg>