<svg xmlns="http://www.w3.org/2000/svg" width="300" height="412"><path fill="#FFF" d="M19.407 2.473h261.185c9.312 0 16.928 7.586 16.928 16.859v373.339c0 9.274-7.615 16.86-16.928 16.86H19.407c-9.312 0-16.928-7.586-16.928-16.86V19.332c0-9.273 7.617-16.859 16.928-16.859z"/><path fill="#C6C6C6" d="M280.592 412H19.407C8.706 412 0 403.329 0 392.671V19.332C0 8.675 8.706.004 19.407.004h261.185c10.701 0 19.406 8.671 19.406 19.328v373.339c0 10.658-8.705 19.329-19.406 19.329zM19.407 4.942c-7.968 0-14.45 6.456-14.45 14.39v373.339c0 7.936 6.482 14.392 14.45 14.392h261.185c7.969 0 14.449-6.456 14.449-14.392V19.332c0-7.935-6.48-14.39-14.449-14.39H19.407z"/><path d="M32.983 34.854v-13.45h53.425v10.512c-4.404 4.032-8.883 9.805-13.457 17.341a97.02 97.02 0 0 0-10.417 23.999c-2.393 8.486-3.569 16.057-3.531 22.73H43.934c.266-10.459 2.581-21.111 6.984-31.974 4.384-10.881 10.249-20.583 17.593-29.157H32.983v-.001z"/><path fill-rule="evenodd" clip-rule="evenodd" d="M189.104 379.661l-75.451-.795c27.258-13.931 34.53-29.842 33.234-55.777-.182-3.687-.405-6.942-.704-7.444-1.232-2.066-14.085 11.116-15.412 12.906-10.034 13.554-55.068 24.465-64.388-11.254-6.707-25.699 17.838-41.126 41.552-37.741 4.986.712 14.004 5.341 21.018 11.603 6.585 5.882 9.839 12.623 15.831 12.896 9.139.418-5.807-21.536-11.267-27.335-23.365-24.818-17.647-66.631 19.064-66.631 35.559 0 40.043 36.252 17.262 65.198-4.584 5.82-18.426 22.922-11.34 28.236 1.703 1.277 6.857-1.499 12.018-7.075 9.184-9.93 22.711-18.549 36.738-18.549 15.281 0 29.086 10.062 31.209 25.693 3.203 23.557-10.338 38.049-33.164 39.412-23.221 1.389-40.025-27.366-46.207-27.366-1.146 0-1.615 3.255-1.773 6.854-1.304 30.291 6.135 41.696 31.78 57.169z"/><g><path fill-rule="evenodd" clip-rule="evenodd" d="M78.741 181.049l-35.734-.355c12.909-6.271 16.353-13.431 15.74-25.106-.088-1.659-.193-3.124-.334-3.349-.583-.931-6.671 5.003-7.298 5.808-4.753 6.1-26.081 11.012-30.495-5.065-3.176-11.566 8.448-18.509 19.68-16.986 2.36.319 6.63 2.404 9.953 5.222 3.118 2.646 4.661 5.68 7.497 5.803 4.329.189-2.75-9.692-5.335-12.302-11.064-11.172-8.356-29.989 9.029-29.989 16.839 0 18.963 16.316 8.174 29.343-2.17 2.621-8.726 10.317-5.371 12.709.806.576 3.249-.673 5.692-3.184 4.349-4.468 10.755-8.349 17.399-8.349 7.238 0 13.774 4.529 14.78 11.565 1.517 10.602-4.896 17.125-15.706 17.737-10.998.625-18.957-12.315-21.883-12.315-.543 0-.767 1.466-.839 3.083-.618 13.635 2.907 18.768 15.051 25.73z"/></g></svg>