<svg xmlns="http://www.w3.org/2000/svg" width="300" height="412"><path fill="#FFF" d="M19.406 2.479h261.182c9.311 0 16.93 7.586 16.93 16.859v373.333c0 9.274-7.619 16.86-16.93 16.86H19.406c-9.31 0-16.927-7.586-16.927-16.86V19.338c0-9.274 7.617-16.859 16.927-16.859z"/><path fill="#C6C6C6" d="M280.588 412H19.406C8.706 412 0 403.329 0 392.671V19.338C0 8.681 8.706.01 19.406.01h261.182c10.703 0 19.41 8.671 19.41 19.328v373.333c0 10.658-8.707 19.329-19.41 19.329zM19.406 4.947c-7.967 0-14.448 6.456-14.448 14.391v373.333c0 7.936 6.481 14.392 14.448 14.392h261.182c7.969 0 14.451-6.456 14.451-14.392V19.338c0-7.935-6.482-14.391-14.451-14.391H19.406z"/><path d="M34.112 34.859V21.41h49.141v10.51c-4.047 4.033-8.169 9.805-12.376 17.341-4.189 7.519-7.384 15.53-9.582 23.999-2.199 8.486-3.282 16.056-3.249 22.73H44.184c.247-10.46 2.376-21.111 6.424-31.974 4.034-10.881 9.428-20.583 16.184-29.157h-32.68z"/><path fill-rule="evenodd" clip-rule="evenodd" d="M147.603 328.407c.08-3.037-.408-3.419-2.483-2.598l-16.675 13.818c-33.679 26.971-84.185-12.822-47.077-56.203 26.616-25.103 51.216-48.794 69.971-73.334 18.514 22.469 39.074 45.375 65.381 70.071 18.756 18.078 23.408 37.368 9.801 57.387-26.072 20.014-48.807 9.871-66.02-7.566-2.324-2.354-5.539-7.836-5.695-1.111 2.895 27.327 11.604 36.533 35.584 47.891l-76.963-.154c24.827-12.078 32.804-20.962 34.176-48.201z"/><g><path fill-rule="evenodd" clip-rule="evenodd" d="M58.633 158.346c.037-1.379-.184-1.551-1.125-1.179l-7.555 6.26c-15.26 12.221-38.142-5.809-21.33-25.463 12.06-11.375 23.204-22.107 31.702-33.227 8.388 10.18 17.706 20.559 29.624 31.748 8.498 8.192 10.607 16.931 4.438 26.002-11.809 9.067-22.111 4.471-29.909-3.43-1.055-1.064-2.512-3.549-2.583-.503 1.312 12.382 5.258 16.553 16.124 21.699l-34.871-.069c11.25-5.474 14.865-9.498 15.485-21.838z"/></g></svg>