<svg xmlns="http://www.w3.org/2000/svg" width="300" height="412"><path fill="#FFF" d="M19.408 2.475h261.186c9.311 0 16.926 7.586 16.926 16.859v373.337c0 9.274-7.615 16.86-16.926 16.86H19.408c-9.312 0-16.929-7.586-16.929-16.86V19.334c0-9.273 7.616-16.859 16.929-16.859z"/><path fill="#C6C6C6" d="M280.594 412H19.408C8.706 412 0 403.329 0 392.671V19.334C0 8.677 8.706.006 19.408.006h261.186c10.701 0 19.404 8.671 19.404 19.328v373.337c0 10.658-8.703 19.329-19.404 19.329zM19.408 4.944c-7.968 0-14.45 6.456-14.45 14.39v373.337c0 7.936 6.482 14.392 14.45 14.392h261.186c7.967 0 14.447-6.456 14.447-14.392V19.334c0-7.935-6.48-14.39-14.447-14.39H19.408z"/><path fill-rule="evenodd" clip-rule="evenodd" fill="#E30613" d="M151.834 208.939c22.629 29.567 50.303 56.676 80.801 82.399-29.664 26.658-59.078 53.395-80.801 82.635-30.138-36.593-58.159-60.45-82.471-82.635 23.881-21.349 52.262-48.002 82.471-82.399z"/><path fill="#E30613" d="M47.69 53.021c-3.713-1.61-6.412-3.828-8.084-6.635-1.689-2.808-2.526-5.901-2.526-9.245 0-5.723 1.934-10.463 5.834-14.201 3.904-3.736 9.445-5.613 16.624-5.613 7.107 0 12.629 1.877 16.55 5.613 3.938 3.738 5.905 8.478 5.905 14.201 0 3.559-.904 6.725-2.716 9.516-1.794 2.77-4.337 4.899-7.597 6.365 4.147 1.697 7.3 4.203 9.462 7.493 2.16 3.273 3.241 7.063 3.241 11.357 0 7.098-2.197 12.857-6.603 17.293-4.411 4.436-10.262 6.653-17.582 6.653-6.812 0-12.475-1.825-17.003-5.491-5.349-4.345-8.014-10.282-8.014-17.83 0-4.149 1.009-7.957 3.013-11.444 2.005-3.472 5.174-6.156 9.496-8.032zm2.96-14.825c0 2.932.802 5.222 2.421 6.849 1.622 1.644 3.765 2.469 6.466 2.469 2.719 0 4.896-.826 6.531-2.487 1.622-1.664 2.441-3.954 2.441-6.886 0-2.771-.803-4.971-2.424-6.635-1.619-1.665-3.745-2.486-6.41-2.486-2.751 0-4.949.841-6.584 2.503-1.621 1.683-2.441 3.9-2.441 6.673zm-1.323 32.887c0 4.061 1.012 7.225 3.033 9.497 2.019 2.272 4.544 3.398 7.578 3.398 2.962 0 5.417-1.091 7.35-3.272 1.937-2.182 2.912-5.331 2.912-9.461 0-3.594-.992-6.49-2.963-8.674-1.966-2.181-4.475-3.272-7.509-3.272-3.5 0-6.115 1.253-7.821 3.719-1.727 2.486-2.58 5.169-2.58 8.065z"/><g><path fill-rule="evenodd" clip-rule="evenodd" fill="#E30613" d="M64.513 102.992c9.902 12.695 22.006 24.333 35.351 35.377-12.978 11.447-25.846 22.927-35.351 35.48-13.185-15.71-25.446-25.954-36.082-35.48 10.449-9.165 22.865-20.61 36.082-35.377z"/></g></svg>