<svg xmlns="http://www.w3.org/2000/svg" width="300" height="412"><path fill="#FFF" d="M19.409 2.475h261.183c9.312 0 16.928 7.587 16.928 16.858V392.67c0 9.275-7.615 16.861-16.928 16.861H19.409c-9.313 0-16.93-7.586-16.93-16.861V19.333c0-9.271 7.616-16.858 16.93-16.858z"/><path fill="#C6C6C6" d="M280.592 412H19.409C8.707 412 0 403.329 0 392.67V19.333C0 8.677 8.707.006 19.409.006h261.183c10.701 0 19.406 8.671 19.406 19.327V392.67c0 10.659-8.705 19.33-19.406 19.33zM19.409 4.944c-7.968 0-14.451 6.455-14.451 14.389V392.67c0 7.937 6.483 14.393 14.451 14.393h261.183c7.969 0 14.449-6.456 14.449-14.393V19.333c0-7.934-6.48-14.389-14.449-14.389H19.409z"/><path fill-rule="evenodd" clip-rule="evenodd" fill="#E30613" d="M152.889 374.036l-28.708-33.734c-19.589-23.019-65.147-63.562-58.208-99.544 6.73-34.905 66.738-39.784 79.128-13.165 1.882 4.049 2.489 7.252 4.054 8.846.811.877 1.853 1.317 3.069 1.317 1.682 0 2.955-.44 3.766-1.317 1.68-1.703 1.891-5.413 4.402-8.846 30.508-41.679 100.682-.482 73.531 48.009-5.414 9.669-12.975 17.784-26.898 34.399-13.934 16.618-22.117 27.252-25.605 31.258l-28.531 32.777z"/><path fill="#E30613" d="M37.548 79.09l13.511-1.572c.34 2.897 1.205 5.042 2.596 6.438 1.389 1.394 3.22 2.091 5.511 2.091 2.88 0 5.324-1.394 7.34-4.184 2.035-2.789 3.322-8.586 3.883-17.401-3.509 4.309-7.9 6.458-13.159 6.458-5.729 0-10.678-2.344-14.834-6.994-4.153-4.667-6.24-10.731-6.24-18.205 0-7.798 2.206-14.076 6.597-18.849 4.374-4.757 9.97-7.155 16.75-7.155 7.394 0 13.446 3.021 18.194 9.049 4.729 6.028 7.102 15.933 7.102 29.723 0 14.057-2.472 24.179-7.407 30.401-4.936 6.206-11.36 9.318-19.28 9.318-5.696 0-10.291-1.593-13.8-4.792-3.509-3.202-5.763-7.976-6.764-14.326zm31.603-32.172c0-4.757-1.035-8.442-3.102-11.054-2.069-2.628-4.477-3.933-7.188-3.933-2.578 0-4.732 1.073-6.427 3.219-1.713 2.146-2.56 5.668-2.56 10.571 0 4.952.933 8.599 2.781 10.909 1.849 2.324 4.17 3.484 6.952 3.484 2.678 0 4.949-1.107 6.78-3.342 1.848-2.237 2.764-5.526 2.764-9.854z"/><g><path fill-rule="evenodd" clip-rule="evenodd" fill="#E30613" d="M63.164 176.827l-12.907-14.656c-8.808-10.004-29.295-27.619-26.174-43.251 3.028-15.168 30.009-17.285 35.58-5.721.848 1.759 1.12 3.151 1.823 3.843.365.384.833.573 1.38.573.757 0 1.33-.189 1.692-.573.757-.74.85-2.349 1.982-3.843 13.718-18.106 45.269-.208 33.062 20.86-2.435 4.201-5.834 7.728-12.094 14.947-6.268 7.222-9.944 11.838-11.515 13.581l-12.829 14.24z"/></g></svg>