<svg xmlns="http://www.w3.org/2000/svg" width="300" height="412"><path fill="#FFF" d="M19.408 2.469h261.186c9.311 0 16.926 7.587 16.926 16.861v373.336c0 9.273-7.615 16.859-16.926 16.859H19.408c-9.312 0-16.929-7.586-16.929-16.859V19.33c0-9.274 7.616-16.861 16.929-16.861z"/><path fill="#C6C6C6" d="M280.594 411.994H19.408C8.706 411.994 0 403.324 0 392.666V19.33C0 8.671 8.706 0 19.408 0h261.186c10.701 0 19.404 8.671 19.404 19.33v373.336c0 10.658-8.703 19.328-19.404 19.328zM19.408 4.938c-7.968 0-14.45 6.457-14.45 14.392v373.336c0 7.935 6.482 14.391 14.45 14.391h261.186c7.967 0 14.447-6.456 14.447-14.391V19.33c0-7.936-6.48-14.392-14.447-14.392H19.408z"/><path fill-rule="evenodd" clip-rule="evenodd" fill="#E30613" d="M153.342 204.813c23.061 29.566 51.256 56.673 82.332 82.397-30.225 26.659-60.197 53.396-82.332 82.639-30.709-36.597-59.262-60.452-84.035-82.639 24.333-21.348 53.254-48.001 84.035-82.397z"/><path fill="#E30613" d="M105.539 92.357H89.068l-6.54-17.017H52.576l-6.178 17.017H30.35l29.185-74.885h15.997l30.007 74.885zM77.678 62.733l-10.327-27.79-10.118 27.79h20.445z"/><g><path fill-rule="evenodd" clip-rule="evenodd" fill="#E30613" d="M68.453 101.536c10.494 13.459 23.328 25.794 37.471 37.503-13.758 12.132-27.399 24.301-37.471 37.607-13.979-16.655-26.973-27.511-38.247-37.607 11.075-9.718 24.237-21.847 38.247-37.503z"/></g></svg>