<svg xmlns="http://www.w3.org/2000/svg" width="300" height="412"><path fill="#FFF" d="M19.41 2.529h261.182c9.314 0 16.93 7.587 16.93 16.861v373.336c0 9.273-7.615 16.859-16.93 16.859H19.41c-9.312 0-16.929-7.586-16.929-16.859V19.391c0-9.275 7.616-16.862 16.929-16.862z"/><path fill="#C6C6C6" d="M280.592 412.055H19.41c-10.702 0-19.408-8.67-19.408-19.328V19.391C.002 8.732 8.708.061 19.41.061h261.182C291.295.061 300 8.732 300 19.391v373.336c0 10.658-8.705 19.328-19.408 19.328zM19.41 4.999c-7.968 0-14.45 6.457-14.45 14.392v373.336c0 7.935 6.482 14.391 14.45 14.391h261.182c7.969 0 14.451-6.456 14.451-14.391V19.391c0-7.936-6.482-14.392-14.451-14.392H19.41z"/><path fill-rule="evenodd" clip-rule="evenodd" fill="#E30613" d="M153.305 368.492l-28.709-33.734c-19.588-23.02-65.148-63.563-58.21-99.545 6.733-34.905 66.741-39.784 79.129-13.161 1.885 4.045 2.492 7.25 4.057 8.845.81.878 1.855 1.315 3.07 1.315 1.678 0 2.953-.438 3.766-1.315 1.68-1.705 1.889-5.413 4.402-8.845 30.504-41.68 100.68-.486 73.529 48.005-5.412 9.673-12.973 17.785-26.9 34.4-13.93 16.621-22.115 27.251-25.604 31.259l-28.53 32.776z"/><path fill="#E30613" d="M107.13 92.417H90.664L84.121 75.4H54.167l-6.174 17.017h-16.05L61.13 17.532h15.997l30.003 74.885zM79.272 62.794l-10.327-27.79-10.121 27.79h20.448z"/><g><path fill-rule="evenodd" clip-rule="evenodd" fill="#E30613" d="M72.453 172.927L59.5 158.22c-8.839-10.037-29.395-27.715-26.261-43.401 3.036-15.218 30.111-17.344 35.701-5.74.848 1.765 1.123 3.162 1.828 3.856.366.384.836.577 1.386.577.757 0 1.333-.193 1.699-.577.756-.743.853-2.36 1.987-3.856 13.763-18.168 45.425-.208 33.176 20.933-2.444 4.215-5.854 7.753-12.136 14.995-6.288 7.249-9.979 11.884-11.552 13.629l-12.875 14.291z"/></g></svg>