<svg xmlns="http://www.w3.org/2000/svg" width="300" height="412"><path fill="#FFF" d="M19.408 2.471H280.59c9.314 0 16.93 7.587 16.93 16.861v373.337c0 9.275-7.615 16.862-16.93 16.862H19.408c-9.312 0-16.929-7.587-16.929-16.862V19.332c0-9.274 7.616-16.861 16.929-16.861z"/><path fill="#C6C6C6" d="M280.59 412H19.408C8.706 412 0 403.328 0 392.669V19.332C0 8.674 8.706.002 19.408.002H280.59c10.703 0 19.408 8.672 19.408 19.33v373.337c0 10.659-8.705 19.331-19.408 19.331zM19.408 4.94c-7.968 0-14.45 6.457-14.45 14.392v373.337c0 7.937 6.482 14.394 14.45 14.394H280.59c7.969 0 14.451-6.457 14.451-14.394V19.332c0-7.936-6.482-14.392-14.451-14.392H19.408z"/><path fill-rule="evenodd" clip-rule="evenodd" fill="#E30613" d="M154.822 369.475l-28.708-33.733c-19.589-23.021-65.147-63.562-58.208-99.547 6.73-34.905 66.738-39.784 79.129-13.163 1.882 4.05 2.491 7.253 4.053 8.847.811.877 1.854 1.317 3.07 1.317 1.678 0 2.953-.44 3.766-1.317 1.68-1.703 1.889-5.413 4.4-8.847 30.508-41.678 100.682-.482 73.533 48.009-5.414 9.67-12.973 17.785-26.898 34.397-13.934 16.622-22.115 27.252-25.605 31.261l-28.532 32.776z"/><path fill="#E30613" d="M67.245 17.52h14.747v47.574c0 6.211-.544 11.006-1.602 14.348-1.435 4.375-4.026 7.892-7.792 10.535-3.768 2.656-8.729 3.969-14.883 3.969-7.229 0-12.789-2.063-16.691-6.228-3.887-4.147-5.866-10.235-5.882-18.268l13.93-1.644c.17 4.304.782 7.349 1.84 9.131 1.602 2.696 4.04 4.042 7.297 4.042 3.292 0 5.627-.962 6.99-2.905 1.364-1.923 2.047-5.932 2.047-12.019V17.52h-.001z"/><g><path fill-rule="evenodd" clip-rule="evenodd" fill="#E30613" d="M65.349 173.36l-12.907-14.657c-8.808-10-29.295-27.615-26.174-43.25 3.025-15.166 30.009-17.285 35.58-5.718.848 1.756 1.119 3.151 1.822 3.843.366.381.833.573 1.38.573.754 0 1.33-.192 1.693-.573.757-.74.85-2.352 1.979-3.843 13.72-18.109 45.272-.211 33.065 20.857-2.435 4.204-5.835 7.728-12.097 14.946-6.265 7.223-9.945 11.842-11.512 13.581L65.349 173.36z"/></g></svg>