<svg xmlns="http://www.w3.org/2000/svg" width="300" height="412"><path fill="#FFF" d="M19.408 2.475h261.186c9.311 0 16.926 7.586 16.926 16.86v373.337c0 9.272-7.615 16.859-16.926 16.859H19.408c-9.312 0-16.929-7.587-16.929-16.859V19.335c0-9.274 7.616-16.86 16.929-16.86z"/><path fill="#C6C6C6" d="M280.594 412H19.408C8.706 412 0 403.33 0 392.672V19.335C0 8.677 8.706.006 19.408.006h261.186c10.701 0 19.404 8.671 19.404 19.329v373.337c0 10.658-8.703 19.328-19.404 19.328zM19.408 4.944c-7.968 0-14.45 6.456-14.45 14.391v373.337c0 7.935 6.482 14.391 14.45 14.391h261.186c7.967 0 14.447-6.456 14.447-14.391V19.335c0-7.935-6.48-14.391-14.447-14.391H19.408z"/><path fill-rule="evenodd" clip-rule="evenodd" fill="#E30613" d="M152.43 206.572c23.061 29.566 51.256 56.673 82.334 82.401-30.229 26.656-60.197 53.396-82.334 82.635-30.71-36.595-59.262-60.452-84.036-82.635 24.334-21.351 53.255-48.004 84.036-82.401z"/><path fill="#E30613" d="M37.976 92.724V17.009h15.608v33.619l31.543-33.619h20.992L77.008 46.502l30.696 46.222H87.503L66.258 57.186 53.584 69.844v22.88H37.976z"/><g><path fill-rule="evenodd" clip-rule="evenodd" fill="#E30613" d="M72.232 102.103c10.319 13.457 22.934 25.792 36.839 37.5-13.522 12.132-26.934 24.304-36.839 37.61-13.74-16.655-26.514-27.514-37.598-37.61 10.888-9.715 23.826-21.844 37.598-37.5z"/></g></svg>