<svg xmlns="http://www.w3.org/2000/svg" width="300" height="412"><path fill="#FFF" d="M19.408 2.475H280.59c9.314 0 16.93 7.586 16.93 16.86v373.337c0 9.272-7.615 16.859-16.93 16.859H19.408c-9.312 0-16.929-7.587-16.929-16.859V19.335c0-9.274 7.616-16.86 16.929-16.86z"/><path fill="#C6C6C6" d="M280.59 412H19.408C8.706 412 0 403.33 0 392.672V19.335C0 8.677 8.706.006 19.408.006H280.59c10.703 0 19.408 8.671 19.408 19.329v373.337c0 10.658-8.705 19.328-19.408 19.328zM19.408 4.944c-7.968 0-14.45 6.456-14.45 14.391v373.337c0 7.935 6.482 14.391 14.45 14.391H280.59c7.969 0 14.451-6.456 14.451-14.391V19.335c0-7.935-6.482-14.391-14.451-14.391H19.408z"/><path fill-rule="evenodd" clip-rule="evenodd" fill="#E30613" d="M154.822 370.193l-28.708-33.734c-19.589-23.019-65.147-63.562-58.208-99.544 6.73-34.909 66.738-39.784 79.129-13.166 1.882 4.05 2.491 7.253 4.053 8.847.811.877 1.854 1.317 3.07 1.317 1.678 0 2.953-.44 3.766-1.317 1.68-1.704 1.889-5.413 4.4-8.847 30.508-41.679 100.682-.483 73.533 48.009-5.414 9.67-12.973 17.785-26.898 34.397-13.934 16.622-22.115 27.251-25.605 31.26l-28.532 32.778z"/><path fill="#E30613" d="M38.35 92.724V17.009h15.608v33.619l31.546-33.619h20.992L77.383 46.502l30.698 46.222H87.88L66.636 57.186 53.958 69.844v22.88H38.35z"/><g><path fill-rule="evenodd" clip-rule="evenodd" fill="#E30613" d="M73.625 173.411l-12.871-14.614c-8.783-9.972-29.207-27.536-26.098-43.121 3.019-15.123 29.918-17.237 35.476-5.704.844 1.753 1.116 3.142 1.816 3.831.363.382.831.571 1.378.571.751 0 1.324-.189 1.687-.571.754-.737.847-2.343 1.974-3.831 13.678-18.056 45.136-.209 32.965 20.796-2.429 4.19-5.816 7.703-12.059 14.901-6.249 7.2-9.916 11.805-11.478 13.542l-12.79 14.2z"/></g></svg>