<svg xmlns="http://www.w3.org/2000/svg" width="300" height="412"><path fill="#FFF" d="M19.408 2.475H280.59c9.312 0 16.93 7.587 16.93 16.861v373.336c0 9.273-7.615 16.859-16.93 16.859H19.408c-9.312 0-16.929-7.586-16.929-16.859V19.336c0-9.274 7.616-16.861 16.929-16.861z"/><path fill="#C6C6C6" d="M280.59 412H19.408C8.706 412 0 403.33 0 392.672V19.336C0 8.677 8.706.006 19.408.006H280.59c10.702 0 19.408 8.671 19.408 19.33v373.336C299.999 403.33 291.292 412 280.59 412zM19.408 4.944c-7.968 0-14.45 6.457-14.45 14.392v373.336c0 7.936 6.482 14.391 14.45 14.391H280.59c7.969 0 14.451-6.455 14.451-14.391V19.336c0-7.936-6.482-14.392-14.451-14.392H19.408z"/><path fill="#E30613" d="M153.302 368.438l-28.709-33.733c-19.588-23.021-65.148-63.563-58.21-99.545 6.733-34.905 66.741-39.784 79.129-13.161 1.885 4.045 2.492 7.25 4.057 8.845.811.878 1.854 1.315 3.07 1.315 1.678 0 2.953-.438 3.766-1.315 1.681-1.704 1.89-5.413 4.402-8.845 30.504-41.68 100.68-.486 73.528 48.005-5.412 9.673-12.974 17.785-26.899 34.399-13.931 16.621-22.115 27.252-25.604 31.26l-28.53 32.775zM72.451 172.873l-12.953-14.708c-8.839-10.037-29.395-27.715-26.261-43.401 3.036-15.218 30.111-17.344 35.701-5.74.848 1.765 1.123 3.162 1.828 3.856.366.384.836.577 1.386.577.757 0 1.333-.193 1.699-.577.756-.743.853-2.36 1.987-3.856 13.763-18.168 45.425-.208 33.176 20.933-2.444 4.215-5.854 7.753-12.136 14.995-6.288 7.249-9.979 11.884-11.552 13.629l-12.875 14.292z"/><g fill="#E30613"><path d="M49.796 89.958H35.411V43.963h-17.83V33.124c10.029.203 19.249-3.241 20.769-14.082h11.447l-.001 70.916zM86.369 17.624c14.184 0 26.137 8.915 26.137 36.572 0 28.266-11.954 37.18-26.137 37.18-13.98 0-25.935-8.915-25.935-37.18.001-27.657 11.955-36.572 25.935-36.572zm0 61.899c11.752 0 11.752-17.323 11.752-25.327 0-7.396 0-24.719-11.752-24.719-11.549 0-11.549 17.323-11.549 24.719 0 8.004 0 25.327 11.549 25.327z"/></g></svg>