<svg xmlns="http://www.w3.org/2000/svg" width="300" height="412"><path fill="#FFF" d="M19.409 2.479h261.183c9.311 0 16.927 7.586 16.927 16.861v373.332c0 9.273-7.616 16.859-16.927 16.859H19.409c-9.311 0-16.93-7.586-16.93-16.859V19.34c0-9.276 7.619-16.861 16.93-16.861z"/><path fill="#C6C6C6" d="M280.591 412H19.409C8.707 412 0 403.33 0 392.672V19.34C0 8.681 8.707.01 19.409.01h261.183c10.701 0 19.406 8.671 19.406 19.33v373.332c0 10.658-8.706 19.328-19.407 19.328zM19.409 4.947c-7.968 0-14.451 6.457-14.451 14.393v373.332c0 7.936 6.483 14.391 14.451 14.391h261.183c7.967 0 14.448-6.455 14.448-14.391V19.34c0-7.936-6.481-14.393-14.448-14.393H19.409z"/><path d="M149.718 323.137c.08-3.039-.406-3.419-2.48-2.599l-16.675 13.817c-33.68 26.969-84.185-12.823-47.078-56.201 26.617-25.105 51.213-48.797 69.969-73.333 18.514 22.465 39.073 45.375 65.384 70.07 18.752 18.078 23.406 37.367 9.801 57.389-26.072 20.013-48.811 9.867-66.021-7.569-2.322-2.353-5.54-7.834-5.693-1.108 2.895 27.326 11.604 36.53 35.585 47.89l-76.963-.154c24.822-12.08 32.802-20.962 34.171-48.202zM67.111 155.151c.037-1.377-.181-1.55-1.122-1.177l-7.555 6.259c-15.259 12.22-38.142-5.81-21.332-25.464 12.062-11.375 23.205-22.106 31.704-33.228 8.388 10.181 17.703 20.56 29.624 31.749 8.496 8.19 10.604 16.931 4.438 26.002-11.812 9.066-22.114 4.47-29.913-3.43-1.051-1.065-2.512-3.549-2.58-.502 1.31 12.381 5.256 16.554 16.124 21.698l-34.873-.069c11.251-5.473 14.868-9.496 15.485-21.838z"/><g><path d="M49.796 89.958H35.411V43.963h-17.83V33.124c10.029.203 19.249-3.241 20.769-14.082h11.447l-.001 70.916zM86.369 17.624c14.184 0 26.137 8.915 26.137 36.572 0 28.266-11.954 37.18-26.137 37.18-13.98 0-25.935-8.915-25.935-37.18.001-27.657 11.955-36.572 25.935-36.572zm0 61.899c11.752 0 11.752-17.323 11.752-25.327 0-7.396 0-24.719-11.752-24.719-11.549 0-11.549 17.323-11.549 24.719 0 8.004 0 25.327 11.549 25.327z"/></g></svg>